<svg width="38" height="38" viewBox="0 0 38 38" fill="none" xmlns="http://www.w3.org/2000/svg">
<rect width="38" height="38" rx="19" fill="#F0F0F0"/>
<path d="M19.0007 25.3332H26.9173M22.959 10.8374C23.3089 10.4879 23.7835 10.2915 24.2784 10.2915C24.5235 10.2915 24.7661 10.3397 24.9925 10.4334C25.2189 10.527 25.4246 10.6643 25.5979 10.8374C25.7711 11.0104 25.9086 11.2159 26.0024 11.442C26.0961 11.6681 26.1444 11.9104 26.1444 12.1552C26.1444 12.3999 26.0961 12.6422 26.0024 12.8683C25.9086 13.0945 25.7711 13.2999 25.5979 13.473L14.6025 24.4546L11.084 25.3332L11.9636 21.819L22.959 10.8374Z" stroke="#C74225" stroke-width="1.5" stroke-linecap="round" stroke-linejoin="round"/>
</svg>
