<svg width="32" height="32" viewBox="0 0 32 32" fill="none" xmlns="http://www.w3.org/2000/svg">
<path d="M3.99935 9.33335C3.62157 9.33335 3.30513 9.2058 3.05002 8.95069C2.79402 8.69469 2.66602 8.3778 2.66602 8.00002V4.00002C2.66602 3.62224 2.79402 3.30535 3.05002 3.04935C3.30513 2.79424 3.62157 2.66669 3.99935 2.66669H7.99935C8.37713 2.66669 8.69402 2.79424 8.95002 3.04935C9.20513 3.30535 9.33268 3.62224 9.33268 4.00002C9.33268 4.3778 9.20513 4.69424 8.95002 4.94935C8.69402 5.20535 8.37713 5.33335 7.99935 5.33335H5.33268V8.00002C5.33268 8.3778 5.20513 8.69469 4.95002 8.95069C4.69402 9.2058 4.37713 9.33335 3.99935 9.33335ZM3.99935 29.3334C3.62157 29.3334 3.30513 29.2054 3.05002 28.9494C2.79402 28.6942 2.66602 28.3778 2.66602 28V24C2.66602 23.6222 2.79402 23.3058 3.05002 23.0507C3.30513 22.7947 3.62157 22.6667 3.99935 22.6667C4.37713 22.6667 4.69402 22.7947 4.95002 23.0507C5.20513 23.3058 5.33268 23.6222 5.33268 24V26.6667H7.99935C8.37713 26.6667 8.69402 26.7947 8.95002 27.0507C9.20513 27.3058 9.33268 27.6222 9.33268 28C9.33268 28.3778 9.20513 28.6942 8.95002 28.9494C8.69402 29.2054 8.37713 29.3334 7.99935 29.3334H3.99935ZM23.9993 29.3334C23.6216 29.3334 23.3051 29.2054 23.05 28.9494C22.794 28.6942 22.666 28.3778 22.666 28C22.666 27.6222 22.794 27.3058 23.05 27.0507C23.3051 26.7947 23.6216 26.6667 23.9993 26.6667H26.666V24C26.666 23.6222 26.794 23.3058 27.05 23.0507C27.3051 22.7947 27.6216 22.6667 27.9993 22.6667C28.3771 22.6667 28.6936 22.7947 28.9487 23.0507C29.2047 23.3058 29.3327 23.6222 29.3327 24V28C29.3327 28.3778 29.2047 28.6942 28.9487 28.9494C28.6936 29.2054 28.3771 29.3334 27.9993 29.3334H23.9993ZM27.9993 9.33335C27.6216 9.33335 27.3051 9.2058 27.05 8.95069C26.794 8.69469 26.666 8.3778 26.666 8.00002V5.33335H23.9993C23.6216 5.33335 23.3051 5.20535 23.05 4.94935C22.794 4.69424 22.666 4.3778 22.666 4.00002C22.666 3.62224 22.794 3.30535 23.05 3.04935C23.3051 2.79424 23.6216 2.66669 23.9993 2.66669H27.9993C28.3771 2.66669 28.6936 2.79424 28.9487 3.04935C29.2047 3.30535 29.3327 3.62224 29.3327 4.00002V8.00002C29.3327 8.3778 29.2047 8.69469 28.9487 8.95069C28.6936 9.2058 28.3771 9.33335 27.9993 9.33335ZM23.3327 23.3334H25.3327V25.3334H23.3327V23.3334ZM23.3327 19.3334H25.3327V21.3334H23.3327V19.3334ZM21.3327 21.3334H23.3327V23.3334H21.3327V21.3334ZM19.3327 23.3334H21.3327V25.3334H19.3327V23.3334ZM17.3327 21.3334H19.3327V23.3334H17.3327V21.3334ZM21.3327 17.3334H23.3327V19.3334H21.3327V17.3334ZM19.3327 19.3334H21.3327V21.3334H19.3327V19.3334ZM17.3327 17.3334H19.3327V19.3334H17.3327V17.3334ZM25.3327 6.66669V14.6667H17.3327V6.66669H25.3327ZM14.666 17.3334V25.3334H6.66602V17.3334H14.666ZM14.666 6.66669V14.6667H6.66602V6.66669H14.666ZM12.666 23.3334V19.3334H8.66602V23.3334H12.666ZM12.666 12.6667V8.66669H8.66602V12.6667H12.666ZM23.3327 12.6667V8.66669H19.3327V12.6667H23.3327Z" fill="#707070"/>
</svg>
