<svg width="24" height="24" viewBox="0 0 24 24" fill="none" xmlns="http://www.w3.org/2000/svg">
<path d="M12.2604 13.5498L12.2506 3.25H17.7504V6.75H14.0004H13.7504V7V17C13.7504 19.0732 12.0911 20.75 10.0104 20.75V20.7499L10.0048 20.7501C9.50526 20.7612 9.00854 20.6725 8.54379 20.4891C8.07903 20.3056 7.65561 20.0312 7.29838 19.6818C6.94115 19.3325 6.65731 18.9153 6.46353 18.4548C6.26974 17.9943 6.16992 17.4996 6.16992 17C6.16992 16.5004 6.26974 16.0057 6.46353 15.5452C6.65731 15.0847 6.94115 14.6675 7.29838 14.3182C7.65561 13.9688 8.07903 13.6944 8.54379 13.5109C9.00854 13.3275 9.50526 13.2388 10.0048 13.2499L10.0048 13.25H10.0104C10.6915 13.25 11.3289 13.4458 11.8855 13.7666L12.2608 13.9828L12.2604 13.5498ZM7.76037 17C7.76037 18.2381 8.7723 19.25 10.0104 19.25C11.2484 19.25 12.2604 18.2381 12.2604 17C12.2604 15.7619 11.2484 14.75 10.0104 14.75C8.7723 14.75 7.76037 15.7619 7.76037 17Z" stroke="black" stroke-width="0.5"/>
</svg>
