<svg width="24" height="24" viewBox="0 0 24 24" fill="none" xmlns="http://www.w3.org/2000/svg">
<path d="M12.5 20.5C12.5 20.8439 12.5342 21.1774 12.6006 21.5H6C5.16614 21.5 4.5 20.8339 4.5 20V4C4.5 3.60218 4.65804 3.22064 4.93934 2.93934C5.22064 2.65804 5.60218 2.5 6 2.5H6.5V9V9.8831L7.25725 9.42875L9.5 8.0831L11.7428 9.42875L12.5 9.8831V9V2.5H18C18.3978 2.5 18.7794 2.65804 19.0607 2.93934C19.342 3.22064 19.5 3.60218 19.5 4V10.5H16.5H16V11V15.7286C13.9761 16.3698 12.5 18.2611 12.5 20.5ZM18.2994 18.668L19 18.9748V18.21V13.5H20H21.5V14.5H20H19.5V15V20.5C19.5 21.0304 19.2893 21.5391 18.9142 21.9142C18.5391 22.2893 18.0304 22.5 17.5 22.5H17.4994C17.2019 22.5004 16.908 22.4343 16.6393 22.3067C16.3705 22.1791 16.1336 21.9931 15.9458 21.7624C15.758 21.5316 15.6241 21.2618 15.5537 20.9728C15.4834 20.6837 15.4785 20.3825 15.5393 20.0913C15.6001 19.8 15.7251 19.526 15.9052 19.2892C16.0853 19.0524 16.316 18.8588 16.5804 18.7224C16.8449 18.5861 17.1364 18.5104 17.4338 18.501C17.7312 18.4916 18.0269 18.5486 18.2994 18.668Z" stroke="black"/>
</svg>
