<svg width="24" height="24" viewBox="0 0 24 24" fill="none" xmlns="http://www.w3.org/2000/svg">
<path d="M12 11L11 14L12 17M12 11L9.5 9.5L9 14M12 11L15.5 13V18.5M12 17H10.5L9 14M12 17L15.5 18.5M9 14V6L13 2M9 14L10 17M10 17H6L3 22M10 17L11 10.5L10 13.5V17ZM20.5 22L15.5 18.5M14 8.5C13.7348 8.5 13.4804 8.39464 13.2929 8.20711C13.1054 8.01957 13 7.76522 13 7.5C13 7.23478 13.1054 6.98043 13.2929 6.79289C13.4804 6.60536 13.7348 6.5 14 6.5C14.2652 6.5 14.5196 6.60536 14.7071 6.79289C14.8946 6.98043 15 7.23478 15 7.5C15 7.76522 14.8946 8.01957 14.7071 8.20711C14.5196 8.39464 14.2652 8.5 14 8.5Z" stroke="black" stroke-width="2" stroke-linecap="round" stroke-linejoin="round"/>
</svg>
