<svg width="24" height="24" viewBox="0 0 24 24" fill="none" xmlns="http://www.w3.org/2000/svg">
<path d="M15 6H13.5C13.5 5.00544 13.1049 4.05161 12.4017 3.34835C11.6984 2.64509 10.7446 2.25 9.75 2.25C8.75544 2.25 7.80161 2.64509 7.09835 3.34835C6.39509 4.05161 6 5.00544 6 6H4.5C4.5 4.60761 5.05312 3.27226 6.03769 2.28769C7.02226 1.30312 8.35761 0.75 9.75 0.75C11.1424 0.75 12.4777 1.30312 13.4623 2.28769C14.4469 3.27226 15 4.60761 15 6Z" fill="black"/>
<path d="M18.7497 11.25C18.3622 11.2514 17.982 11.3549 17.6472 11.55C17.445 11.2293 17.165 10.9649 16.8333 10.7813C16.5016 10.5977 16.1288 10.501 15.7497 10.5C15.3622 10.5014 14.982 10.6049 14.6472 10.8C14.3743 10.3706 13.964 10.0464 13.4832 9.88026C13.0024 9.71408 12.4794 9.71576 11.9997 9.885V6C11.9997 5.40326 11.7626 4.83097 11.3407 4.40901C10.9187 3.98705 10.3464 3.75 9.74969 3.75C9.15296 3.75 8.58066 3.98705 8.1587 4.40901C7.73675 4.83097 7.49969 5.40326 7.49969 6V14.325L5.82719 13.185C5.44379 12.8995 4.97773 12.7467 4.49969 12.75C4.05343 12.7489 3.61691 12.8805 3.24565 13.1282C2.87439 13.3758 2.58515 13.7282 2.41471 14.1407C2.24427 14.5531 2.20032 15.0069 2.28846 15.4444C2.3766 15.8819 2.59284 16.2832 2.90969 16.5975L8.90969 22.0725C9.75914 22.8328 10.8597 23.2522 11.9997 23.25H15.7497C17.1421 23.25 18.4774 22.6969 19.462 21.7123C20.4466 20.7277 20.9997 19.3924 20.9997 18V13.5C20.9997 12.9033 20.7626 12.331 20.3407 11.909C19.9187 11.4871 19.3464 11.25 18.7497 11.25ZM19.4997 18C19.4997 18.9946 19.1046 19.9484 18.4013 20.6516C17.6981 21.3549 16.7443 21.75 15.7497 21.75H11.9997C11.2416 21.7592 10.506 21.4926 9.92969 21L3.96719 15.525C3.82864 15.3853 3.75052 15.1968 3.74969 15C3.74969 14.8607 3.78848 14.7242 3.86171 14.6057C3.93493 14.4872 4.03971 14.3915 4.16428 14.3292C4.28886 14.2669 4.42833 14.2405 4.56705 14.253C4.70577 14.2655 4.83827 14.3164 4.94969 14.4L8.99969 17.175V6C8.99969 5.80109 9.07871 5.61032 9.21936 5.46967C9.36002 5.32902 9.55078 5.25 9.74969 5.25C9.94861 5.25 10.1394 5.32902 10.28 5.46967C10.4207 5.61032 10.4997 5.80109 10.4997 6V14.25H11.9997V12C11.9997 11.8011 12.0787 11.6103 12.2194 11.4697C12.36 11.329 12.5508 11.25 12.7497 11.25C12.9486 11.25 13.1394 11.329 13.28 11.4697C13.4207 11.6103 13.4997 11.8011 13.4997 12V14.25H14.9997V12.75C14.9997 12.5511 15.0787 12.3603 15.2194 12.2197C15.36 12.079 15.5508 12 15.7497 12C15.9486 12 16.1394 12.079 16.28 12.2197C16.4207 12.3603 16.4997 12.5511 16.4997 12.75V14.25H17.9997V13.5C17.9997 13.3011 18.0787 13.1103 18.2194 12.9697C18.36 12.829 18.5508 12.75 18.7497 12.75C18.9486 12.75 19.1394 12.829 19.28 12.9697C19.4207 13.1103 19.4997 13.3011 19.4997 13.5V18Z" fill="black"/>
</svg>
