<svg width="33" height="33" viewBox="0 0 33 33" fill="none" xmlns="http://www.w3.org/2000/svg">
<g clip-path="url(#clip0_1_12711)">
<path d="M10.7559 12.6865H12.0892M12.0892 12.6865H22.7559M12.0892 12.6865V22.0198C12.0892 22.3735 12.2297 22.7126 12.4797 22.9626C12.7298 23.2127 13.0689 23.3532 13.4225 23.3532H20.0892C20.4428 23.3532 20.782 23.2127 21.032 22.9626C21.2821 22.7126 21.4225 22.3735 21.4225 22.0198V12.6865H12.0892ZM14.0892 12.6865V11.3532C14.0892 10.9995 14.2297 10.6604 14.4797 10.4104C14.7298 10.1603 15.0689 10.0198 15.4225 10.0198H18.0892C18.4428 10.0198 18.782 10.1603 19.032 10.4104C19.2821 10.6604 19.4225 10.9995 19.4225 11.3532V12.6865M15.4225 16.0198V20.0198M18.0892 16.0198V20.0198" stroke="#C74225" stroke-width="1.5" stroke-linecap="round" stroke-linejoin="round"/>
</g>
<rect x="1.25586" y="1.18652" width="31" height="31" rx="15.5" stroke="#A8A8A8"/>
<defs>
<clipPath id="clip0_1_12711">
<rect width="16" height="16" fill="white" transform="translate(8.75586 8.68652)"/>
</clipPath>
</defs>
</svg>
