<svg width="119" height="119" viewBox="0 0 119 119" fill="none" xmlns="http://www.w3.org/2000/svg">
<rect width="119" height="119" rx="10" fill="#EBEBEB"/>
<path d="M91.4375 34.5303V31.3042C85.9907 25.7685 78.6961 22.4835 70.9792 22.0914C68.8415 21.835 66.6743 22.12 64.6727 22.9205C62.6712 23.721 60.8982 25.012 59.5137 26.6771C58.0855 25.0643 56.3048 23.8102 54.313 23.0141C52.3211 22.2181 50.1729 21.9022 48.039 22.0914C40.3158 22.479 33.0138 25.7643 27.5625 31.3042V34.5303L23 35.9129V82L53.5687 75.5478L54.9375 77.3913H64.0625L65.4312 75.5478L96 82V35.9129L91.4375 34.5303ZM48.0025 64.9939C42.3996 65.1457 36.9019 66.5663 31.9151 69.1509L32.125 33.2399C36.3002 29.258 41.7589 26.9339 47.4961 26.6955C50.9969 26.9151 54.3857 28.0265 57.3465 29.9262L57.2598 66.1921C54.2404 65.302 51.1007 64.8992 47.9569 64.9985L48.0025 64.9939ZM86.875 69.0495C81.9648 66.5264 76.5594 65.1409 71.0522 64.9939L70.3177 64.9846C67.3064 64.9846 64.4001 65.4271 61.6535 66.2474L61.8679 29.8294C64.7484 27.9992 68.0352 26.9236 71.4309 26.7001C77.1967 26.9207 82.6868 29.2496 86.8796 33.2537L86.8659 69.0541L86.875 69.0495Z" fill="#A1A1AA"/>
<path d="M38.74 93V86H43V86.69H39.58V89.15H42.49V89.83H39.58V93H38.74ZM44.0318 93V88.04H44.7918L44.8618 88.99C45.0151 88.6633 45.2485 88.4033 45.5618 88.21C45.8751 88.0167 46.2618 87.92 46.7218 87.92V88.8H46.4918C46.1985 88.8 45.9285 88.8533 45.6818 88.96C45.4351 89.06 45.2385 89.2333 45.0918 89.48C44.9451 89.7267 44.8718 90.0667 44.8718 90.5V93H44.0318ZM49.7091 93.12C49.2357 93.12 48.8157 93.0133 48.4491 92.8C48.0824 92.58 47.7924 92.2767 47.5791 91.89C47.3724 91.5033 47.2691 91.0467 47.2691 90.52C47.2691 90 47.3724 89.5467 47.5791 89.16C47.7857 88.7667 48.0724 88.4633 48.4391 88.25C48.8124 88.03 49.2424 87.92 49.7291 87.92C50.2091 87.92 50.6224 88.03 50.9691 88.25C51.3224 88.4633 51.5924 88.7467 51.7791 89.1C51.9657 89.4533 52.0591 89.8333 52.0591 90.24C52.0591 90.3133 52.0557 90.3867 52.0491 90.46C52.0491 90.5333 52.0491 90.6167 52.0491 90.71H48.0991C48.1191 91.09 48.2057 91.4067 48.3591 91.66C48.5191 91.9067 48.7157 92.0933 48.9491 92.22C49.1891 92.3467 49.4424 92.41 49.7091 92.41C50.0557 92.41 50.3457 92.33 50.5791 92.17C50.8124 92.01 50.9824 91.7933 51.0891 91.52H51.9191C51.7857 91.98 51.5291 92.3633 51.1491 92.67C50.7757 92.97 50.2957 93.12 49.7091 93.12ZM49.7091 88.63C49.3091 88.63 48.9524 88.7533 48.6391 89C48.3324 89.24 48.1557 89.5933 48.1091 90.06H51.2291C51.2091 89.6133 51.0557 89.2633 50.7691 89.01C50.4824 88.7567 50.1291 88.63 49.7091 88.63ZM55.0724 93.12C54.4791 93.12 53.9858 92.97 53.5924 92.67C53.1991 92.37 52.9691 91.9633 52.9024 91.45H53.7624C53.8158 91.71 53.9524 91.9367 54.1724 92.13C54.3991 92.3167 54.7024 92.41 55.0824 92.41C55.4358 92.41 55.6958 92.3367 55.8624 92.19C56.0291 92.0367 56.1124 91.8567 56.1124 91.65C56.1124 91.35 56.0024 91.15 55.7824 91.05C55.5691 90.95 55.2658 90.86 54.8724 90.78C54.6058 90.7267 54.3391 90.65 54.0724 90.55C53.8058 90.45 53.5824 90.31 53.4024 90.13C53.2224 89.9433 53.1324 89.7 53.1324 89.4C53.1324 88.9667 53.2924 88.6133 53.6124 88.34C53.9391 88.06 54.3791 87.92 54.9324 87.92C55.4591 87.92 55.8891 88.0533 56.2224 88.32C56.5624 88.58 56.7591 88.9533 56.8124 89.44H55.9824C55.9491 89.1867 55.8391 88.99 55.6524 88.85C55.4724 88.7033 55.2291 88.63 54.9224 88.63C54.6224 88.63 54.3891 88.6933 54.2224 88.82C54.0624 88.9467 53.9824 89.1133 53.9824 89.32C53.9824 89.52 54.0858 89.6767 54.2924 89.79C54.5058 89.9033 54.7924 90 55.1524 90.08C55.4591 90.1467 55.7491 90.23 56.0224 90.33C56.3024 90.4233 56.5291 90.5667 56.7024 90.76C56.8824 90.9467 56.9724 91.22 56.9724 91.58C56.9791 92.0267 56.8091 92.3967 56.4624 92.69C56.1224 92.9767 55.6591 93.12 55.0724 93.12ZM58.1724 93V85.8H59.0124V88.89C59.1791 88.5833 59.4158 88.3467 59.7224 88.18C60.0291 88.0067 60.3624 87.92 60.7224 87.92C61.2958 87.92 61.7558 88.1 62.1024 88.46C62.4491 88.8133 62.6224 89.36 62.6224 90.1V93H61.7924V90.19C61.7924 89.1567 61.3758 88.64 60.5424 88.64C60.1091 88.64 59.7458 88.7967 59.4524 89.11C59.1591 89.4167 59.0124 89.8567 59.0124 90.43V93H58.1724ZM63.8951 95.2V88.04H64.6551L64.7351 88.86C64.8951 88.62 65.1217 88.4033 65.4151 88.21C65.7151 88.0167 66.0951 87.92 66.5551 87.92C67.0484 87.92 67.4784 88.0333 67.8451 88.26C68.2117 88.4867 68.4951 88.7967 68.6951 89.19C68.9017 89.5833 69.0051 90.03 69.0051 90.53C69.0051 91.03 68.9017 91.4767 68.6951 91.87C68.4951 92.2567 68.2084 92.5633 67.8351 92.79C67.4684 93.01 67.0384 93.12 66.5451 93.12C66.1384 93.12 65.7751 93.0367 65.4551 92.87C65.1417 92.7033 64.9017 92.47 64.7351 92.17V95.2H63.8951ZM66.4551 92.39C66.7884 92.39 67.0817 92.3133 67.3351 92.16C67.5884 92 67.7884 91.78 67.9351 91.5C68.0817 91.22 68.1551 90.8933 68.1551 90.52C68.1551 90.1467 68.0817 89.82 67.9351 89.54C67.7884 89.26 67.5884 89.0433 67.3351 88.89C67.0817 88.73 66.7884 88.65 66.4551 88.65C66.1217 88.65 65.8284 88.73 65.5751 88.89C65.3217 89.0433 65.1217 89.26 64.9751 89.54C64.8284 89.82 64.7551 90.1467 64.7551 90.52C64.7551 90.8933 64.8284 91.22 64.9751 91.5C65.1217 91.78 65.3217 92 65.5751 92.16C65.8284 92.3133 66.1217 92.39 66.4551 92.39ZM71.8244 93.12C71.411 93.12 71.0677 93.05 70.7944 92.91C70.521 92.77 70.3177 92.5833 70.1844 92.35C70.051 92.1167 69.9844 91.8633 69.9844 91.59C69.9844 91.0833 70.1777 90.6933 70.5644 90.42C70.951 90.1467 71.4777 90.01 72.1444 90.01H73.4844V89.95C73.4844 89.5167 73.371 89.19 73.1444 88.97C72.9177 88.7433 72.6144 88.63 72.2344 88.63C71.9077 88.63 71.6244 88.7133 71.3844 88.88C71.151 89.04 71.0044 89.2767 70.9444 89.59H70.0844C70.1177 89.23 70.2377 88.9267 70.4444 88.68C70.6577 88.4333 70.921 88.2467 71.2344 88.12C71.5477 87.9867 71.881 87.92 72.2344 87.92C72.9277 87.92 73.4477 88.1067 73.7944 88.48C74.1477 88.8467 74.3244 89.3367 74.3244 89.95V93H73.5744L73.5244 92.11C73.3844 92.39 73.1777 92.63 72.9044 92.83C72.6377 93.0233 72.2777 93.12 71.8244 93.12ZM71.9544 92.41C72.2744 92.41 72.5477 92.3267 72.7744 92.16C73.0077 91.9933 73.1844 91.7767 73.3044 91.51C73.4244 91.2433 73.4844 90.9633 73.4844 90.67V90.66H72.2144C71.721 90.66 71.371 90.7467 71.1644 90.92C70.9644 91.0867 70.8644 91.2967 70.8644 91.55C70.8644 91.81 70.9577 92.02 71.1444 92.18C71.3377 92.3333 71.6077 92.41 71.9544 92.41ZM77.5445 91.44C77.2645 91.44 77.0079 91.4033 76.7745 91.33L76.2745 91.8C76.3479 91.8533 76.4379 91.9 76.5445 91.94C76.6579 91.9733 76.8179 92.0067 77.0245 92.04C77.2312 92.0667 77.5212 92.0967 77.8945 92.13C78.5612 92.1767 79.0379 92.33 79.3245 92.59C79.6112 92.85 79.7545 93.19 79.7545 93.61C79.7545 93.8967 79.6745 94.17 79.5145 94.43C79.3612 94.69 79.1212 94.9033 78.7945 95.07C78.4745 95.2367 78.0612 95.32 77.5545 95.32C77.1079 95.32 76.7112 95.26 76.3645 95.14C76.0179 95.0267 75.7479 94.85 75.5545 94.61C75.3612 94.3767 75.2645 94.08 75.2645 93.72C75.2645 93.5333 75.3145 93.33 75.4145 93.11C75.5145 92.8967 75.7012 92.6933 75.9745 92.5C75.8279 92.44 75.7012 92.3767 75.5945 92.31C75.4945 92.2367 75.4012 92.1567 75.3145 92.07V91.84L76.1645 91C75.7712 90.6667 75.5745 90.2267 75.5745 89.68C75.5745 89.3533 75.6512 89.0567 75.8045 88.79C75.9579 88.5233 76.1812 88.3133 76.4745 88.16C76.7679 88 77.1245 87.92 77.5445 87.92C77.8312 87.92 78.0912 87.96 78.3245 88.04H80.1545V88.67L79.2245 88.71C79.4179 88.99 79.5145 89.3133 79.5145 89.68C79.5145 90.0067 79.4345 90.3033 79.2745 90.57C79.1212 90.8367 78.8979 91.05 78.6045 91.21C78.3179 91.3633 77.9645 91.44 77.5445 91.44ZM77.5445 90.75C77.8979 90.75 78.1779 90.66 78.3845 90.48C78.5979 90.2933 78.7045 90.0267 78.7045 89.68C78.7045 89.34 78.5979 89.08 78.3845 88.9C78.1779 88.7133 77.8979 88.62 77.5445 88.62C77.1845 88.62 76.8979 88.7133 76.6845 88.9C76.4779 89.08 76.3745 89.34 76.3745 89.68C76.3745 90.0267 76.4779 90.2933 76.6845 90.48C76.8979 90.66 77.1845 90.75 77.5445 90.75ZM76.0845 93.64C76.0845 93.9733 76.2245 94.22 76.5045 94.38C76.7845 94.5467 77.1345 94.63 77.5545 94.63C77.9679 94.63 78.2979 94.54 78.5445 94.36C78.7979 94.18 78.9245 93.94 78.9245 93.64C78.9245 93.4267 78.8379 93.24 78.6645 93.08C78.4912 92.9267 78.1712 92.8367 77.7045 92.81C77.3379 92.7833 77.0212 92.75 76.7545 92.71C76.4812 92.8567 76.3012 93.0133 76.2145 93.18C76.1279 93.3533 76.0845 93.5067 76.0845 93.64ZM83.1368 93.12C82.6635 93.12 82.2435 93.0133 81.8768 92.8C81.5101 92.58 81.2201 92.2767 81.0068 91.89C80.8001 91.5033 80.6968 91.0467 80.6968 90.52C80.6968 90 80.8001 89.5467 81.0068 89.16C81.2135 88.7667 81.5001 88.4633 81.8668 88.25C82.2401 88.03 82.6701 87.92 83.1568 87.92C83.6368 87.92 84.0501 88.03 84.3968 88.25C84.7501 88.4633 85.0201 88.7467 85.2068 89.1C85.3935 89.4533 85.4868 89.8333 85.4868 90.24C85.4868 90.3133 85.4835 90.3867 85.4768 90.46C85.4768 90.5333 85.4768 90.6167 85.4768 90.71H81.5268C81.5468 91.09 81.6335 91.4067 81.7868 91.66C81.9468 91.9067 82.1435 92.0933 82.3768 92.22C82.6168 92.3467 82.8701 92.41 83.1368 92.41C83.4835 92.41 83.7735 92.33 84.0068 92.17C84.2401 92.01 84.4101 91.7933 84.5168 91.52H85.3468C85.2135 91.98 84.9568 92.3633 84.5768 92.67C84.2035 92.97 83.7235 93.12 83.1368 93.12ZM83.1368 88.63C82.7368 88.63 82.3801 88.7533 82.0668 89C81.7601 89.24 81.5835 89.5933 81.5368 90.06H84.6568C84.6368 89.6133 84.4835 89.2633 84.1968 89.01C83.9101 88.7567 83.5568 88.63 83.1368 88.63Z" fill="#6C7072"/>
</svg>
