<svg width="262" height="261" viewBox="0 0 262 261" fill="none" xmlns="http://www.w3.org/2000/svg">
<g clip-path="url(#clip0_249_10960)">
<path d="M238.099 119.931C238.099 120.489 238.029 121.047 238.029 121.605C235.234 165.489 219.51 214.954 204.205 222.977C178.487 236.442 126.073 230.233 98.3985 217.675C70.7938 205.047 58.8434 221.721 42.1408 220.047C26.207 218.373 2.09656 197.163 0.139771 164.791C0.0698853 163.396 0 161.931 0 160.535C0 160.535 0 158.861 0.209656 156.07C0.908509 146.163 3.98346 122.373 17.1219 110.303C34.0341 94.7446 54.7901 104.442 75.7557 99.4888C77.7823 99.0004 79.809 98.3028 81.6959 97.3958C86.8674 94.9539 91.6895 91.1865 96.3718 86.6516C107.833 75.5586 118.246 60.0702 130.476 50.0237C149.485 34.3958 185.825 30.8377 221.327 54.6981C235.513 64.1865 239.707 90.6283 238.099 119.931Z" fill="#FFD2C7"/>
<path d="M48.9197 164.233L0.139771 164.791C0.0698853 163.395 0 161.93 0 160.535C0 160.535 0 158.861 0.209656 156.07C0.838624 156.209 1.53748 156.349 2.3761 156.349C6.35956 156.349 8.38624 151.884 14.9555 151.884C21.4548 151.884 24.9491 160.884 29.2819 160.884C33.6148 160.884 35.0125 158.791 39.1358 160.884C43.1891 162.977 48.9197 164.233 48.9197 164.233Z" fill="white"/>
<path d="M222.931 110.791C220.695 110.652 220.066 112.884 216.082 112.884C212.099 112.884 210.072 108.419 203.503 108.419C196.934 108.419 193.509 117.419 189.176 117.419C184.913 117.419 183.446 115.326 179.323 117.419C175.199 119.512 169.469 120.768 169.469 120.768L239.214 121.535C239.284 121.605 232.925 111.279 222.931 110.791Z" fill="white"/>
<path d="M150.323 96.5584L81.7656 97.3258C86.9371 94.8839 91.7592 91.1165 96.4415 86.5816C96.5813 86.5816 96.791 86.5816 96.9307 86.5816C99.1671 86.4421 99.796 88.6746 103.779 88.6746C107.763 88.6746 109.79 84.2793 116.359 84.2793C122.858 84.2793 126.352 93.2793 130.685 93.2793C135.018 93.2793 136.416 91.1863 140.539 93.2793C144.593 95.3025 150.323 96.5584 150.323 96.5584Z" fill="white"/>
<path d="M237.68 40.7444C237.68 40.7444 241.873 45.6281 242.642 45.349C243.41 45.1397 241.384 38.6514 241.384 38.6514" fill="#2C294F"/>
<path d="M228.099 71.0239C228.099 71.0239 228.308 72.9774 228.798 75.6983C229.357 79.1867 230.195 84.0006 231.244 87.9774C232.082 91.0471 232.991 93.6285 234.039 94.7448C231.453 94.2564 218.874 98.5123 210.837 104.024C207.552 106.256 205.106 108.629 204.338 111.001C203.08 107.582 202.94 102.977 203.08 98.2332C203.289 93.0006 203.918 87.5588 204.058 83.303C204.128 81.9076 204.128 80.6518 204.058 79.5355C201.612 80.582 199.586 82.0471 197.838 83.8611C196.511 79.8146 192.807 75.4192 190.57 72.9774C197 63.6285 206.085 57.3495 210.907 56.2332C220.481 54.0006 229.357 57.9076 234.039 59.303C234.668 61.1169 235.367 63.4192 235.786 65.8611C236.066 67.396 236.205 68.8611 236.136 70.3262C232.012 71.5123 228.099 71.0239 228.099 71.0239Z" fill="url(#paint0_linear_249_10960)"/>
<path d="M220.346 43.6046C219.717 43.9534 219.088 44.1627 218.459 44.372C214.406 45.8371 211.261 45.4185 211.261 45.4185L209.584 47.9999C209.584 47.9999 209.374 46.186 207.837 46.6743C206.299 47.1627 206.439 50.0232 208.885 49.7441L207.557 53.4418C207.557 53.4418 207.068 51.9767 205.111 51.6278C203.154 51.279 200.918 48.1395 203.364 46.3953C200.569 43.0464 201.547 38.9302 205.461 37.5348C209.304 36.1395 212.659 37.5348 216.782 36.279C220.905 35.093 221.744 34.1162 221.744 34.1162C221.744 34.1162 225.448 41.093 220.346 43.6046Z" fill="#2C294F"/>
<path d="M216.992 54.2094C216.852 54.2792 216.642 54.4187 216.433 54.4885C213.568 55.6745 211.331 55.3954 209.794 54.9071C208.326 54.3489 207.488 53.5815 207.488 53.5815L208.815 49.8838C206.369 50.1629 206.16 47.3024 207.767 46.814C209.305 46.3257 209.514 48.1396 209.514 48.1396L210.772 46.2559L211.261 45.5582C211.261 45.5582 214.476 45.9768 218.46 44.5117C218.46 44.5117 218.809 45.2094 219.088 46.3257C219.717 48.4885 220.207 52.4652 216.992 54.2094Z" fill="url(#paint1_linear_249_10960)"/>
<path d="M217.197 57.9769C216.778 59.5815 211.466 60.9769 209.789 58.1164C210.278 57.0001 209.789 54.8373 209.789 54.8373C211.327 55.3955 213.563 55.6048 216.428 54.4187C216.638 54.349 216.778 54.2792 216.987 54.1396C216.987 55.1862 216.987 56.721 217.197 57.9769Z" fill="url(#paint2_linear_249_10960)"/>
<path d="M197.912 83.9302C190.644 91.3255 188.966 103.395 189.665 103.953C190.504 104.721 191.622 107.232 190.434 108.349C190.574 110.791 189.735 112.256 185.891 111.419C181.978 110.512 182.467 108.558 184.214 103.744C181.139 92.1627 184.843 81.4185 190.644 73.1162C192.88 75.4883 196.514 79.8139 197.912 83.9302Z" fill="url(#paint3_linear_249_10960)"/>
<path d="M245.64 60.9766C244.452 66.837 240.189 69.3487 236.136 70.3952C236.206 68.93 236.066 67.3952 235.786 65.93C235.367 63.4882 234.668 61.1859 234.039 59.3719C235.297 59.7207 236.206 59.93 236.834 59.7905C239.56 59.1626 239.071 51.0696 238.372 49.0463C237.673 47.0928 237.184 42.9068 239.7 41.651C242.216 40.3952 244.033 40.8138 244.103 43.8138C244.172 46.8138 242.216 46.8138 242.006 48.0696C241.936 48.837 243.683 52.1859 244.801 55.4649C245.5 57.558 245.989 59.5114 245.64 60.9766Z" fill="url(#paint4_linear_249_10960)"/>
<path d="M241.73 156.558C240.122 157.744 238.235 157.884 236.488 157.326C235.58 157.047 234.671 156.628 233.903 156.07C232.715 155.233 231.736 154.047 231.177 152.86C230.967 152.442 230.967 151.953 231.037 151.326C231.736 146.512 239.423 135.698 239.703 130.744C240.052 125.163 230.758 116.372 230.758 116.372C230.758 116.372 231.317 120.558 229.779 130.674C229.36 133.535 228.731 136.814 227.892 140.651C224.049 158.023 206.577 175.953 203.083 175.605C202.594 175.535 202.035 175.465 201.546 175.326C200.497 175.047 199.449 174.558 198.541 173.86C197.143 172.744 196.095 170.93 195.885 168.349C195.885 168.209 195.885 168.14 195.885 168C195.675 162.767 211.12 148.116 211.469 140.163C211.819 132.209 204.69 122.791 204.271 111.14C206.997 102.977 230.338 94.186 233.972 94.8837C233.972 94.8837 234.112 94.9535 234.322 95.1628C236.977 97.3256 254.099 111.628 256.406 120.279C258.991 129.628 245.573 153.767 241.73 156.558Z" fill="#2C294F"/>
<path d="M201.689 175.256C198.684 179.582 194.561 194.93 189.879 194.442C184.707 193.884 187.433 183.349 188.132 180C188.83 176.651 187.433 172.814 188.481 171.349C189.389 170.093 194.072 169.326 196.029 168.279C196.308 172.465 198.894 174.558 201.689 175.256Z" fill="url(#paint5_linear_249_10960)"/>
<path d="M236.562 157.326C236.003 158.582 235.304 160.256 234.745 161.861C233.627 165.001 235.863 177.489 231.041 176.233C226.219 174.977 225.66 167.931 226.149 164.722C226.638 161.512 224.332 158.303 224.961 156.001C225.52 154.117 229.434 152.582 231.251 151.326C231.181 151.954 231.181 152.442 231.391 152.861C232.159 154.815 234.186 156.629 236.562 157.326Z" fill="url(#paint6_linear_249_10960)"/>
<path d="M237.536 39.0004C237.885 39.9772 237.326 41.0237 236.348 41.3725C235.369 41.7213 234.321 41.1632 233.972 40.1865C233.622 39.2097 234.181 38.1632 235.16 37.8144C236.208 37.4655 237.256 38.0237 237.536 39.0004Z" fill="url(#paint7_linear_249_10960)"/>
<path d="M253.886 32.0239C254.375 33.5588 253.607 35.2332 252.069 35.7216C250.532 36.21 248.854 35.4425 248.365 33.9076C247.876 32.3728 248.645 30.6983 250.182 30.21C251.72 29.7216 253.397 30.5588 253.886 32.0239Z" fill="url(#paint8_linear_249_10960)"/>
<path d="M252.488 38.4422L237.253 41.6515C236.903 41.7212 236.624 41.5817 236.484 41.2329L235.086 37.7445C234.946 37.4654 235.086 37.1166 235.366 36.9073L248.504 28.6049C248.853 28.3956 249.343 28.5352 249.482 28.9538L252.977 37.4654C253.116 37.884 252.907 38.3026 252.488 38.4422Z" fill="#2C294F"/>
<path opacity="0.15" d="M243.619 133.954C242.081 139.047 236.141 147.489 235.512 153.21C235.372 154.605 234.743 155.512 233.905 156.07C232.716 155.233 231.738 154.047 231.179 152.861C230.969 152.443 230.969 151.954 231.039 151.326C231.738 146.512 239.425 135.698 239.705 130.745C240.054 125.163 230.76 116.373 230.76 116.373L229.781 107.582C229.781 107.582 237.608 114.489 239.775 120.629C242.081 126.768 245.226 128.791 243.619 133.954Z" fill="black"/>
<path opacity="0.15" d="M214.126 142.605C211.121 151.605 202.944 166.326 198.681 173.791C197.283 172.675 196.235 170.861 196.026 168.28C196.026 168.14 196.026 168.07 196.026 167.931C195.816 162.698 211.261 148.047 211.61 140.093C211.959 132.14 204.831 122.721 204.412 111.07C207.137 102.907 230.479 94.1167 234.113 94.8144C234.113 94.8144 234.253 94.8842 234.462 95.0935C230.549 96.5586 214.895 102.907 210.422 109.745C205.32 117.628 218.249 130.117 214.126 142.605Z" fill="black"/>
<path d="M245.367 48.6975C245.367 48.6975 245.437 48.2092 245.367 48.6975V48.6975Z" fill="url(#paint9_linear_249_10960)"/>
<path opacity="0.15" d="M245.646 60.977C244.458 66.8375 240.195 69.3491 236.141 70.3956C232.018 71.5119 228.105 71.0235 228.105 71.0235L227.336 65.8607C227.336 65.8607 231.529 66.6282 235.862 65.9305C239.985 65.2328 244.178 63.1398 244.668 57.5584C244.737 56.791 244.807 56.1631 244.807 55.5352C245.506 57.5584 245.995 59.5119 245.646 60.977Z" fill="black"/>
<path opacity="0.15" d="M210.913 104.093C207.629 106.325 205.183 108.698 204.414 111.07C201.409 102.558 204.554 87.0696 204.204 79.6045C206.58 82.465 205.532 89.0231 208.118 94.465C209.865 98.3022 210.005 101.93 210.913 104.093Z" fill="black"/>
<path d="M214.473 48.7674C214.782 48.7674 215.032 48.4551 215.032 48.0697C215.032 47.6844 214.782 47.3721 214.473 47.3721C214.164 47.3721 213.914 47.6844 213.914 48.0697C213.914 48.4551 214.164 48.7674 214.473 48.7674Z" fill="#2C294F"/>
<path d="M218.392 47.6518C218.392 48.0704 218.182 48.3495 217.833 48.3495C217.483 48.3495 217.273 48.0006 217.273 47.6518C217.273 47.2332 217.483 46.9541 217.833 46.9541C218.182 46.9541 218.392 47.3029 218.392 47.6518Z" fill="#2C294F"/>
<path d="M212.586 50.3027L216.639 50.9306C216.639 50.9306 215.801 52.6051 214.193 52.5353C212.656 52.5353 212.586 50.3027 212.586 50.3027Z" fill="#F8FCFF"/>
<path opacity="0.15" d="M231.25 88.0466C223.143 88.6048 209.935 90.628 203.086 98.3025C203.296 93.0699 203.925 87.628 204.064 83.3722C204.064 83.3722 210.843 76.0466 228.734 75.7676C229.363 79.2559 230.201 84.0699 231.25 88.0466Z" fill="white"/>
<path opacity="0.15" d="M219.09 46.186C214.897 47.5814 211.961 46.6744 210.773 46.1163L211.263 45.4186C211.263 45.4186 214.477 45.8372 218.461 44.3721C218.461 44.3721 218.81 45.0697 219.09 46.186Z" fill="black"/>
<path d="M194.904 177.977C194.904 177.977 200.285 180.349 199.516 181.814C198.748 183.209 194.764 180 193.856 181.046C192.947 182.023 198.888 184.046 197.699 185.721C196.442 187.395 193.436 182.372 192.248 183.907C191.13 185.511 196.442 188.302 196.442 188.302" stroke="#2C294F" stroke-miterlimit="10"/>
<path d="M232.152 160.466C232.152 160.466 237.743 160.954 236.555 162.28C235.367 163.605 232.082 161.094 231.244 162.559C230.405 164.024 233.969 163.257 235.087 164.791C236.206 166.396 232.012 164.652 231.244 165.908C230.475 167.233 235.297 167.722 235.297 167.722" stroke="#2C294F" stroke-miterlimit="10"/>
<path d="M132.852 236.303C132.292 237.14 126.212 238.396 125.374 240.907C124.535 243.489 128.239 243.559 128.029 249.907C127.82 256.186 129.427 261.489 134.319 260.931C139.141 260.303 136.905 250.326 136.066 247.186C135.158 244.047 138.303 240.279 138.303 240.279" fill="#2C294F"/>
<path d="M141.941 209.721C138.936 211.256 135.651 212.582 134.044 212.024C133.415 211.814 132.926 211.535 132.367 211.047C131.878 210.628 131.458 210.07 131.109 209.512C129.851 207.489 129.362 204.628 129.851 202.396C129.921 202.186 129.921 201.977 129.991 201.838C130.969 198.838 137.888 194.233 141.102 191.303C141.452 192.349 141.731 193.396 141.941 194.442C142.291 196.047 142.43 198 142.5 200.163C142.64 203.024 142.43 206.303 141.941 209.721Z" fill="url(#paint10_linear_249_10960)"/>
<path d="M165.142 178.047C165.002 183.838 163.954 189.07 162.067 192.28C163.674 211.814 145.085 246.07 140.962 245.582C138.516 245.303 135.441 243.559 133.624 241.256C132.296 239.652 131.597 237.768 132.226 235.884C137.328 230.721 140.752 219.768 142.01 209.721C142.779 203.861 142.848 198.28 142.08 194.442C141.87 193.396 141.591 192.349 141.241 191.303C138.446 182.861 132.086 174.908 132.226 167.233C132.226 166.605 132.296 165.977 132.436 165.349L136.279 162.349L156.057 147.07C156.616 147.559 157.175 148.187 157.734 148.814C162.906 155.233 165.421 167.582 165.142 178.047Z" fill="url(#paint11_linear_249_10960)"/>
<path d="M157.523 51.4189C155.776 51.2793 153.19 52.3956 152.491 54.0003C150.395 52.3956 149.067 49.3258 149.696 48.2793C150.325 47.1631 151.793 48.8375 151.793 48.8375C151.793 48.8375 148.159 39.1398 150.465 37.8142C152.771 36.4886 156.335 41.8607 157.104 45.4886C157.453 47.5119 157.523 49.8142 157.523 51.4189Z" fill="url(#paint12_linear_249_10960)"/>
<path d="M160.108 83.1632C159.758 85.0469 159.269 86.8609 158.78 88.605C157.662 92.512 156.194 96.0702 154.726 99.2795C153.888 101.093 153.049 102.768 152.28 104.372C149.834 109.256 147.738 112.954 147.598 115.466C147.528 116.582 147.598 117.628 147.808 118.605C148.297 120.977 149.555 123 151.023 125.442C153.049 128.931 155.565 133.326 157.033 141.07C157.242 142.047 157.382 143.024 157.522 144.07C157.732 145.745 157.732 147.279 157.592 148.745C157.592 148.745 157.592 148.745 157.592 148.814C156.194 159.14 145.222 165 137.674 166.745C135.298 167.303 133.342 167.442 132.084 167.163C131.594 167.093 131.245 166.884 130.965 166.675C127.751 163.814 130.127 151.535 126.702 145.256C117.687 152.861 114.752 176.093 114.263 177.14C114.193 177.279 114.123 177.349 113.983 177.489C112.935 178.326 109.72 178.535 107.204 177.21H107.135C105.318 166.954 106.226 156.14 108.742 146.093C109.161 144.279 109.65 142.466 110.209 140.721C111.467 136.675 112.865 132.838 114.473 129.21C115.241 127.466 116.08 125.791 116.849 124.186C120.483 117.14 124.466 111.559 127.96 108.489C156.404 91.8841 152.071 56.6516 152.211 54.6283C152.211 54.3492 152.28 54.1399 152.42 53.8609C153.119 52.326 155.775 51.2097 157.452 51.2795C157.522 51.2795 157.662 51.2795 157.732 51.2795C161.855 63.7678 161.855 74.3027 160.108 83.1632Z" fill="#C74225"/>
<path d="M132.851 108.559C131.384 110.442 129.217 111.838 126.771 112.117C126.212 112.187 125.583 112.187 125.024 112.117C124.535 112.047 123.976 111.977 123.487 111.768L122.858 108C122.788 107.791 122.508 107.721 122.369 107.931C122.159 108.28 121.74 108.559 121.041 108.21C119.643 107.582 119.433 104.582 121.949 105.21C121.53 101.582 125.374 97.5353 129.637 96.5586C129.637 96.5586 130.825 96.9772 132.083 97.8842C133.411 98.8609 134.738 100.466 134.948 102.768C135.088 104.652 134.249 106.745 132.851 108.559Z" fill="url(#paint13_linear_249_10960)"/>
<path d="M129.641 96.4886C125.448 97.4654 121.534 101.512 121.953 105.14C119.438 104.512 119.647 107.582 121.045 108.14C121.744 108.419 122.093 108.14 122.373 107.861C122.512 107.651 122.792 107.721 122.862 107.931L123.491 111.698C120.556 112.535 116.852 110.861 114.476 107.791C112.169 104.721 116.153 101.791 116.153 101.791C116.153 101.791 113.357 101.582 113.497 96.7677C113.707 91.884 132.017 87.4886 133.484 82.5352C138.796 87.3491 133.415 95.0933 129.641 96.4886Z" fill="#2C294F"/>
<path d="M133.482 112.814C131.875 115.256 128.171 114.977 128.031 114C127.961 113.512 127.333 112.745 126.773 112.117C129.219 111.838 131.386 110.373 132.853 108.559C133.552 109.745 134.67 111 133.482 112.814Z" fill="url(#paint14_linear_249_10960)"/>
<path d="M115.523 188.372C115.173 190.047 109.233 191.721 106.927 188.512C104.97 185.721 106.787 178.954 107.276 177.279C109.792 178.605 113.007 178.396 114.055 177.558C115.593 179.651 115.663 182.721 114.964 183.489C114.125 184.326 115.872 186.698 115.523 188.372Z" fill="url(#paint15_linear_249_10960)"/>
<path opacity="0.15" d="M162.067 192.279C162.067 192.279 162.207 175.535 156.477 169.675C161.019 171.489 163.186 174.768 165.142 178.047C165.003 183.838 163.954 189.07 162.067 192.279Z" fill="black"/>
<path opacity="0.15" d="M142.569 200.163C141.451 200.233 139.424 200.721 136.14 202.605C132.925 204.419 131.667 207.279 131.178 209.582C129.85 207.349 129.291 204.21 130.06 201.838C131.038 198.838 137.957 194.233 141.171 191.303C141.521 192.349 141.8 193.396 142.01 194.442C142.36 196.047 142.499 198 142.569 200.163Z" fill="#404446"/>
<path d="M132.369 211.116C128.386 215.86 127.267 227.791 122.375 226.465C116.785 224.93 121.257 217.953 121.956 213.767C122.655 209.581 120.279 204.628 121.956 203.093C123.563 201.628 126.429 203.163 129.853 202.465C129.364 204.767 129.853 207.558 131.111 209.581C131.53 210.139 131.95 210.698 132.369 211.116Z" fill="#2C294F"/>
<path d="M131.733 246.837C131.733 246.837 137.394 246.419 137.254 247.954C137.114 249.488 131.314 248.442 131.174 249.558C131.034 250.675 138.162 249.698 138.232 251.093C138.302 252.488 133.55 251.372 132.781 252.628" stroke="url(#paint16_linear_249_10960)" stroke-miterlimit="10"/>
<path d="M126.427 213.14C126.427 213.14 131.668 214.814 131.179 216.14C130.69 217.465 126.077 214.465 125.239 215.512C124.33 216.558 130.061 217.465 129.711 219.279C129.362 221.093 124.68 218.023 124.68 218.023" stroke="url(#paint17_linear_249_10960)" stroke-miterlimit="10"/>
<path d="M128.169 102.07C128.378 102.489 128.238 102.977 127.889 103.187C127.54 103.326 127.05 103.117 126.841 102.698C126.631 102.28 126.771 101.791 127.12 101.582C127.47 101.443 127.959 101.652 128.169 102.07Z" fill="#2C294F"/>
<path d="M131.247 99.6984C131.456 100.117 131.317 100.605 130.967 100.815C130.618 100.954 130.128 100.745 129.919 100.326C129.709 99.9077 129.849 99.4193 130.198 99.21C130.548 99.0705 130.967 99.2798 131.247 99.6984Z" fill="#2C294F"/>
<path d="M126.219 106.814C126.219 106.814 131.67 107.302 132.718 103.884" stroke="#2C294F" stroke-miterlimit="10"/>
<path opacity="0.15" d="M125.024 112.117C124.535 112.047 123.976 111.977 123.487 111.768L122.858 108C122.788 107.791 122.508 107.721 122.369 107.931C122.159 108.28 121.74 108.559 121.041 108.21C119.643 107.582 119.433 104.582 121.949 105.21C121.53 101.582 125.374 97.5353 129.637 96.5586C129.637 96.5586 130.825 96.9772 132.083 97.8842C130.405 98.233 125.513 99.4888 124.186 101.791C122.928 103.954 124.325 109.605 125.024 112.117Z" fill="black"/>
<path opacity="0.15" d="M133.552 241.256C132.224 239.652 131.526 237.768 132.155 235.884C137.256 230.722 140.681 219.768 141.939 209.722C142.707 203.861 142.777 198.28 142.008 194.442C141.799 193.396 141.519 192.349 141.17 191.303C138.374 182.861 132.015 174.908 132.155 167.233C131.665 167.163 131.316 166.954 131.036 166.745C127.822 163.884 130.198 151.605 126.773 145.326C131.036 146.094 133.482 150.349 135.719 160.396C135.859 161.024 135.998 161.652 136.208 162.28C136.627 163.745 137.186 165.21 137.815 166.745C141.24 175.187 146.9 184.745 147.32 197.791C147.669 212.303 138.864 234.838 133.552 241.256Z" fill="black"/>
<path d="M67.2973 118.257C64.9911 117.698 62.8246 116.791 61.7065 116.233C63.1042 121.326 65.061 128.582 65.8996 130.536C67.0177 133.326 68.3456 134.931 68.4853 136.257C68.4853 136.466 68.4853 136.675 68.4853 136.884C68.1359 138.419 56.7446 150.35 49.6163 149.303C42.488 148.257 40.3216 145.257 40.3216 145.257L35.0802 119.303C34.8006 120.629 34.6608 121.815 34.6608 122.931C34.3813 123.001 34.1716 123.14 33.8921 123.21C30.1183 124.675 27.0433 127.815 25.3661 129.698C24.5275 127.815 24.0383 125.582 24.1082 123.14C24.3877 110.722 33.4029 100.954 39.3432 97.6054C40.2517 97.117 41.0903 96.6984 41.7891 96.5589C41.859 97.1868 41.9988 97.8845 41.9289 98.2333C41.9289 98.4426 42.1386 98.6519 42.488 98.931C43.6761 99.6984 46.4715 100.326 47.9391 99.6287C48.4282 99.3496 48.8476 99.1403 49.0572 98.8612C49.7561 98.1636 49.5464 97.6054 49.4066 97.117C49.3368 96.9077 49.197 96.6287 49.1271 96.3496C49.8958 96.3496 50.7345 96.4194 51.5032 96.4891C55.6963 97.0473 60.2389 98.8612 64.0127 101.861C66.5285 103.815 68.5552 105.071 70.3722 105.838C70.7217 109.047 69.9529 112.117 69.0444 114.559C68.4853 116.164 67.7865 117.419 67.2973 118.257Z" fill="url(#paint18_linear_249_10960)"/>
<path d="M86.4454 94.1862C85.8165 98.163 86.4454 109.535 79.8762 115.256C77.8496 117.07 75.0541 118.326 71.3502 118.605C70.0224 118.744 68.6247 118.535 67.2969 118.256C67.7861 117.419 68.4849 116.093 69.1139 114.489C70.0224 112.116 70.7911 109.047 70.4417 105.768C70.4417 105.768 70.5116 105.768 70.5116 105.837C72.4684 106.675 74.1456 106.884 75.8229 106.814C79.1075 106.675 81.4836 96.4886 80.7149 93.6979C80.016 90.9072 77.9194 88.8141 78.9677 87.6281C80.016 86.442 81.1342 88.256 81.833 87.0002C82.5319 85.7444 80.9944 80.0932 83.9995 80.0234C87.0744 80.0234 87.8431 90.2095 86.4454 94.1862Z" fill="url(#paint19_linear_249_10960)"/>
<path d="M52.6221 84.0702C51.7834 84.419 51.1545 84.419 50.6653 84.2795C50.0363 84.14 49.6869 83.7911 49.6869 83.7911C46.9614 84.9074 45.5636 83.3028 45.5636 83.3028C45.5636 83.3028 44.8648 85.4656 41.72 84.9074C41.4404 87.2097 38.9944 87.9074 38.9944 87.9074C37.0376 87.14 36.8979 88.6749 37.3172 90.2097C37.7365 91.7446 39.0643 90.8376 39.2041 91.1865C39.3439 91.5353 39.6234 93.6283 39.6234 93.6283C39.6234 93.6283 37.1075 94.1865 35.9195 92.7214C34.7314 91.2562 35.7797 89.4423 35.7797 89.4423C35.7797 89.4423 33.8229 89.5121 33.1241 86.0237C32.4252 82.5353 34.7314 81.5586 34.7314 81.5586C34.7314 81.5586 33.0542 77.0935 35.9195 75.4888C38.7149 73.8144 41.6501 76.047 41.6501 76.047C41.6501 76.047 42.5586 73.8842 45.7034 73.6051C48.8483 73.326 49.8267 76.5353 49.8267 76.5353C55.3476 75.3493 54.509 83.3028 52.6221 84.0702Z" fill="#2C294F"/>
<path d="M52.2033 91.1865C52.0635 92.4423 50.8056 93.9074 48.9886 94.8841C46.9619 96.0004 44.1665 96.419 41.5807 95.0934C41.2313 94.8841 40.8819 94.6748 40.5325 94.4655C40.183 94.2562 39.9035 93.9771 39.5541 93.6283C39.5541 93.6283 39.2745 91.5353 39.1348 91.1865C38.995 90.8376 37.6672 91.7446 37.2478 90.2097C36.8285 88.6748 36.9683 87.2097 38.9251 87.9074C38.9251 87.9074 41.3711 87.1399 41.6506 84.9074C44.7955 85.4655 45.4943 83.3027 45.4943 83.3027C45.4943 83.3027 46.892 84.9074 49.6175 83.7911C49.6175 83.7911 49.967 84.1399 50.5959 84.2795C50.5959 84.2795 50.9454 84.9772 51.3647 86.0934C51.8539 87.4888 52.413 89.4423 52.2033 91.1865Z" fill="url(#paint20_linear_249_10960)"/>
<path d="M49.1253 98.7912C48.8458 99.0703 48.4963 99.2796 48.0071 99.5586C46.6094 100.256 44.0936 99.6982 42.7657 99.0005C42.6959 98.9307 42.626 98.9307 42.4862 98.861C42.1368 98.6517 41.9271 98.3726 41.9271 98.1633C41.9271 97.8145 41.8572 97.1866 41.7874 96.4889C41.7175 96.0005 41.5777 95.4424 41.5078 95.0238C44.1635 96.3493 46.889 95.9307 48.9157 94.8145C48.9157 95.2331 48.9157 95.5819 48.9855 95.861C48.9855 96.0005 49.0554 96.14 49.0554 96.2098C49.1952 96.5586 49.2651 96.7679 49.335 96.9772C49.6145 97.5354 49.7543 98.1633 49.1253 98.7912Z" fill="url(#paint21_linear_249_10960)"/>
<path d="M80.4345 205.256C79.526 215.233 77.9186 223.326 76.3811 224.023C75.822 224.302 75.1232 224.512 74.3545 224.581C71.6988 225 68.2045 224.581 66.3875 223.605C66.108 223.465 65.8983 223.326 65.6887 223.116C65.4091 222.907 65.1995 222.628 65.1296 222.349C64.6404 220.256 66.108 211.744 66.1779 211.326L66.108 211.465C66.108 211.535 66.0381 211.605 66.0381 211.674L65.8983 211.954L65.8284 212.093C65.1296 213.628 63.3825 216.698 61.845 216.977C61.0762 217.116 59.399 216.628 57.582 215.861C57.2326 215.721 56.8132 215.512 56.4638 215.302C54.1576 214.116 51.9213 212.372 51.2923 210.558C51.1525 210.209 51.0826 209.86 51.0826 209.512C51.1525 205.605 62.474 189.767 61.845 182.651C61.216 175.535 53.2491 167.93 48.2872 163.605C43.2555 159.349 40.3203 153.767 40.3203 145.256C40.3203 145.256 42.4868 148.256 49.6151 149.302C56.8132 150.349 68.2045 138.349 68.4841 136.884C68.554 136.674 68.554 136.465 68.4841 136.256C68.6937 136.814 74.9834 152.093 78.5476 166.256C79.1765 168.767 79.7356 171.209 80.1549 173.581C81.6924 181.814 81.4828 194.651 80.4345 205.256Z" fill="#2C294F"/>
<path opacity="0.15" d="M64.0106 179.442C63.3817 184.116 56.8823 205.814 56.3931 215.372C54.0869 214.186 51.8506 212.442 51.2216 210.628C51.0819 210.279 51.012 209.93 51.012 209.581C51.0819 205.674 62.4033 189.837 61.7743 182.721C61.1453 175.605 53.1784 168 48.2166 163.674C43.1848 159.419 40.2496 153.837 40.2496 145.326L35.0781 119.302C35.0781 119.302 39.2712 119.093 41.1581 123.628C43.0451 128.163 43.1848 136.884 47.3081 139.674C51.4313 142.465 47.3081 143.791 49.5444 149.442C51.7807 155.093 58.2102 161.302 58.0005 165.628C57.9306 169.814 64.8493 173.791 64.0106 179.442Z" fill="black"/>
<path d="M66.1793 211.466C66.1793 211.536 66.1094 211.605 66.1094 211.675L66.1793 211.466Z" fill="#2C294F"/>
<path opacity="0.15" d="M80.4362 205.256C74.9851 211.815 68.5557 218.791 66.3892 223.605C65.6904 223.256 65.2711 222.838 65.2012 222.349C64.712 220.256 66.1796 211.745 66.2495 211.326C70.0932 203.931 81.5544 179.582 74.9152 168.977C69.0449 159.768 67.4375 157.675 67.0881 157.326C67.7171 157.954 73.3079 163.466 78.5493 166.326C79.1783 168.838 79.7373 171.28 80.1566 173.652C81.6941 181.815 81.4845 194.652 80.4362 205.256Z" fill="black"/>
<path d="M57.0237 219.488C57.4431 222.349 57.8624 233.302 54.5778 233.023C51.363 232.744 49.6858 229.465 48.9869 224.512C48.358 219.488 46.4711 218.721 46.541 216.209C46.6108 214.116 49.8256 211.744 51.2233 210.628C51.992 212.721 54.9272 214.744 57.5828 215.93C57.1635 216.977 56.8141 218.302 57.0237 219.488Z" fill="url(#paint22_linear_249_10960)"/>
<path d="M78.4799 240.977C75.4049 242.024 72.5396 239.721 69.9539 235.396C67.3681 231.07 65.3415 231.14 64.3631 228.768C63.7341 227.233 64.7824 224.931 65.6909 223.187C65.9005 223.326 66.1102 223.535 66.3897 223.675C68.2068 224.652 71.701 225.07 74.3567 224.652C74.4266 225.628 74.7061 226.745 75.2652 227.652C76.8725 230.093 81.6247 239.931 78.4799 240.977Z" fill="url(#paint23_linear_249_10960)"/>
<path d="M54.0157 220.047C54.0157 220.047 58.1389 220.396 57.9293 221.582C57.7895 222.768 54.1554 221.372 53.7361 222.698C53.3168 224.093 57.0207 223.117 57.5798 224.791C58.1389 226.465 54.7145 225.279 53.7361 225.558" stroke="#2C294F" stroke-miterlimit="10"/>
<path d="M72.4688 229.396C72.4688 229.396 76.0329 228.349 76.8715 229.396C77.7102 230.442 73.517 230.442 73.7267 231.559C73.9363 232.605 77.5005 230.652 78.0596 231.838C78.6187 233.024 75.1244 233.163 74.7051 233.861" stroke="#2C294F" stroke-miterlimit="10"/>
<path d="M59.047 129.768L52.4778 131.582C52.0585 131.721 51.5693 131.442 51.4295 131.024L48.0051 118.535C47.8653 118.117 48.1449 117.628 48.5642 117.489L55.1334 115.675C55.5527 115.535 56.0419 115.815 56.1817 116.233L59.6061 128.721C59.7458 129.14 59.4663 129.628 59.047 129.768Z" fill="#2C294F"/>
<path d="M50.6661 132.489C44.656 141.349 29.9102 139.466 25.4375 129.698C27.1846 127.675 30.609 124.256 34.7322 122.931C34.7322 124.466 35.1516 125.791 35.9902 126.628C40.8822 131.861 47.8008 129.14 48.6394 127.954C49.5479 126.838 48.8491 125.024 49.5479 124.884C50.2468 124.745 49.7576 125.582 50.3866 125.861C51.0854 126.14 51.7843 123 53.9507 123.07C56.1171 123.21 55.3484 131.931 50.6661 132.489Z" fill="url(#paint24_linear_249_10960)"/>
<path opacity="0.15" d="M79.8079 115.256C77.7813 117.07 74.9859 118.326 71.2819 118.605C69.9541 118.745 68.5564 118.535 67.2286 118.256C64.9224 117.698 62.7559 116.791 61.6378 116.233L59.8906 109.047C59.8906 109.047 63.8741 112.465 69.0456 114.419C72.47 115.745 76.2438 116.442 79.8079 115.256Z" fill="black"/>
<path d="M46.0557 88.6053C46.0557 89.0239 45.7761 89.3728 45.4966 89.3728C45.217 89.3728 44.9375 89.0239 44.9375 88.6053C44.9375 88.1867 45.217 87.8379 45.4966 87.8379C45.7761 87.8379 46.0557 88.2565 46.0557 88.6053Z" fill="#2C294F"/>
<path d="M49.7588 87.9071C49.7588 88.3257 49.4793 88.6745 49.1997 88.6745C48.8503 88.6745 48.6406 88.3257 48.6406 87.9071C48.6406 87.4885 48.9202 87.1396 49.1997 87.1396C49.4793 87.1396 49.7588 87.4885 49.7588 87.9071Z" fill="#2C294F"/>
<path d="M43.6094 91.1172L49.1303 91.5358C49.1303 91.5358 47.8724 93.6986 45.8457 93.559C44.3781 93.4195 43.6094 91.1172 43.6094 91.1172Z" fill="white"/>
<path opacity="0.15" d="M51.3643 86.0934C45.8433 83.6516 40.7417 87.3492 40.1127 88.8144C39.5536 90.2097 40.1826 93.2795 40.4621 94.4655C40.1127 94.2562 39.8332 93.9771 39.4837 93.6283C39.4837 93.6283 39.2042 91.5353 39.0644 91.1865C38.9247 90.8376 37.5968 91.7446 37.1775 90.2097C36.7582 88.6748 36.898 87.2097 38.8548 87.9074C38.8548 87.9074 41.3008 87.1399 41.5803 84.9074C44.7251 85.4655 45.424 83.3027 45.424 83.3027C45.424 83.3027 46.8217 84.9074 49.5472 83.7911C49.5472 83.7911 49.8967 84.1399 50.5256 84.2795C50.5955 84.2795 51.0148 84.9772 51.3643 86.0934Z" fill="black"/>
<path opacity="0.15" d="M49.0554 95.9303C47.3083 96.4884 44.443 97.535 42.7657 99.0698C42.6959 99.0001 42.626 99.0001 42.4862 98.9303C42.1368 98.721 41.9271 98.4419 41.9271 98.2326C41.9271 97.8838 41.8572 97.2559 41.7874 96.5582C41.7175 96.0698 41.5777 95.5117 41.5078 95.0931C44.1635 96.4187 46.889 96.0001 48.9157 94.8838C48.9855 95.3024 48.9855 95.6512 49.0554 95.9303Z" fill="black"/>
<path opacity="0.15" d="M48.359 102.279C42.9778 102.698 40.3221 99.2794 39.3438 97.6748C40.2523 97.1864 41.0909 96.7678 41.7897 96.6282C41.8596 97.2562 41.9994 97.9538 41.9295 98.3027C41.9295 98.512 42.1392 98.7213 42.4886 99.0003C43.6766 99.7678 46.4721 100.396 47.9396 99.698C48.4288 99.4189 48.8482 99.2096 49.0578 98.9306C49.7567 98.2329 49.547 97.6748 49.4072 97.1864C49.3373 96.9771 49.1976 96.698 49.1277 96.4189C49.8964 96.4189 50.7351 96.4887 51.5038 96.5585C52.2026 99.0701 52.0629 101.931 48.359 102.279Z" fill="black"/>
<path d="M70.5826 41.7906V60.6975C70.5826 60.9766 70.373 61.2557 70.0235 61.2557H48.9182C48.6386 61.2557 48.3591 61.465 48.3591 61.8138V66.2092C48.3591 66.7673 47.6602 66.9766 47.3807 66.4882L43.9563 61.465C43.8864 61.3254 43.6768 61.2557 43.537 61.2557H38.645C38.3655 61.2557 38.0859 61.0464 38.0859 60.6975V41.7906C38.0859 41.5115 38.2956 41.2324 38.645 41.2324H69.9536C70.3031 41.3022 70.5826 41.5115 70.5826 41.7906Z" fill="#C74225"/>
<path d="M51.0861 51.4189C51.0861 51.7678 50.8065 52.0468 50.4571 52.0468C50.1077 52.0468 49.8281 51.7678 49.8281 51.4189C49.8281 51.0701 50.1077 50.791 50.4571 50.791C50.8065 50.791 51.0861 51.0701 51.0861 51.4189Z" fill="white"/>
<path d="M55.0001 51.4189C55.0001 51.7678 54.7206 52.0468 54.3712 52.0468C54.0217 52.0468 53.7422 51.7678 53.7422 51.4189C53.7422 51.0701 54.0217 50.791 54.3712 50.791C54.7206 50.791 55.0001 51.0701 55.0001 51.4189Z" fill="white"/>
<path d="M58.8439 51.4189C58.8439 51.7678 58.5643 52.0468 58.2149 52.0468C57.8655 52.0468 57.5859 51.7678 57.5859 51.4189C57.5859 51.0701 57.8655 50.791 58.2149 50.791C58.5643 50.791 58.8439 51.0701 58.8439 51.4189Z" fill="white"/>
<path d="M229.57 0.55814V19.4651C229.57 19.7442 229.78 20.0233 230.129 20.0233H251.235C251.514 20.0233 251.794 20.2326 251.794 20.5814V24.9767C251.794 25.5349 252.493 25.7442 252.772 25.2558L256.197 20.2326C256.267 20.093 256.476 20.0233 256.616 20.0233H261.508C261.787 20.0233 262.067 19.814 262.067 19.4651V0.55814C262.067 0.27907 261.857 0 261.508 0H230.199C229.85 0 229.57 0.209302 229.57 0.55814Z" fill="#C74225"/>
<path d="M242.57 10.2558C242.57 10.6047 242.291 10.8837 241.941 10.8837C241.592 10.8837 241.312 10.6047 241.312 10.2558C241.312 9.907 241.592 9.62793 241.941 9.62793C242.291 9.62793 242.57 9.907 242.57 10.2558Z" fill="white"/>
<path d="M246.414 10.2558C246.414 10.6047 246.135 10.8837 245.785 10.8837C245.436 10.8837 245.156 10.6047 245.156 10.2558C245.156 9.907 245.436 9.62793 245.785 9.62793C246.135 9.62793 246.414 9.907 246.414 10.2558Z" fill="white"/>
<path d="M250.328 10.2558C250.328 10.6047 250.049 10.8837 249.699 10.8837C249.35 10.8837 249.07 10.6047 249.07 10.2558C249.07 9.907 249.35 9.62793 249.699 9.62793C250.049 9.62793 250.328 9.907 250.328 10.2558Z" fill="white"/>
<path d="M101.609 54.4888V73.3958C101.609 73.6748 101.819 73.9539 102.168 73.9539H115.377C115.656 73.9539 115.936 74.1632 115.936 74.5121V78.9074C115.936 79.4655 116.635 79.6748 116.914 79.1865L120.339 74.1632C120.409 74.0237 120.618 73.9539 120.758 73.9539H133.477C133.757 73.9539 134.036 73.7446 134.036 73.3958V54.4888C134.036 54.2097 133.827 53.9307 133.477 53.9307H102.168C101.889 54.0004 101.609 54.2097 101.609 54.4888Z" fill="#2C294F"/>
<path d="M119.777 66.6978V65.5815C119.777 65.442 119.638 65.3024 119.498 65.3024H111.74C111.601 65.3024 111.461 65.1629 111.461 65.0234V62.5117C111.461 62.3722 111.601 62.2327 111.74 62.2327H119.498C119.638 62.2327 119.777 62.0931 119.777 61.9536V60.6978C119.777 60.4187 120.057 60.2792 120.266 60.4885L124.11 63.4885C124.25 63.628 124.25 63.8373 124.11 63.9768L120.266 66.9768C120.057 67.1164 119.777 66.9768 119.777 66.6978Z" fill="white"/>
</g>
<defs>
<linearGradient id="paint0_linear_249_10960" x1="211.872" y1="42.3109" x2="215.434" y2="109.87" gradientUnits="userSpaceOnUse">
<stop stop-color="#FFA252"/>
<stop offset="1" stop-color="#FF6E52"/>
</linearGradient>
<linearGradient id="paint1_linear_249_10960" x1="223.228" y1="54.0131" x2="203.819" y2="44.5903" gradientUnits="userSpaceOnUse">
<stop offset="2.7e-07" stop-color="#FFD2D2"/>
<stop offset="1" stop-color="#FFA4A4"/>
</linearGradient>
<linearGradient id="paint2_linear_249_10960" x1="219.635" y1="62.6197" x2="211.309" y2="54.042" gradientUnits="userSpaceOnUse">
<stop offset="2.7e-07" stop-color="#FFD2D2"/>
<stop offset="1" stop-color="#FFA4A4"/>
</linearGradient>
<linearGradient id="paint3_linear_249_10960" x1="186.504" y1="99.3451" x2="199.573" y2="70.7824" gradientUnits="userSpaceOnUse">
<stop offset="2.7e-07" stop-color="#FFD2D2"/>
<stop offset="1" stop-color="#FFA4A4"/>
</linearGradient>
<linearGradient id="paint4_linear_249_10960" x1="245.93" y1="42.3434" x2="234.289" y2="71.8543" gradientUnits="userSpaceOnUse">
<stop offset="2.7e-07" stop-color="#FFD2D2"/>
<stop offset="1" stop-color="#FFA4A4"/>
</linearGradient>
<linearGradient id="paint5_linear_249_10960" x1="219.983" y1="156.012" x2="178.901" y2="192.715" gradientUnits="userSpaceOnUse">
<stop stop-color="#FFA252"/>
<stop offset="1" stop-color="#FF6E52"/>
</linearGradient>
<linearGradient id="paint6_linear_249_10960" x1="238.011" y1="143.584" x2="222.013" y2="183.25" gradientUnits="userSpaceOnUse">
<stop stop-color="#FFA252"/>
<stop offset="1" stop-color="#FF6E52"/>
</linearGradient>
<linearGradient id="paint7_linear_249_10960" x1="242.968" y1="29.1046" x2="227.011" y2="52.5243" gradientUnits="userSpaceOnUse">
<stop stop-color="#FFA252"/>
<stop offset="1" stop-color="#FF6E52"/>
</linearGradient>
<linearGradient id="paint8_linear_249_10960" x1="253.553" y1="29.2152" x2="239.17" y2="51.8422" gradientUnits="userSpaceOnUse">
<stop stop-color="#FFA252"/>
<stop offset="1" stop-color="#FF6E52"/>
</linearGradient>
<linearGradient id="paint9_linear_249_10960" x1="245.366" y1="48.4181" x2="245.382" y2="48.7164" gradientUnits="userSpaceOnUse">
<stop stop-color="#FFA252"/>
<stop offset="1" stop-color="#FF6E52"/>
</linearGradient>
<linearGradient id="paint10_linear_249_10960" x1="136.832" y1="155.691" x2="135.882" y2="220.554" gradientUnits="userSpaceOnUse">
<stop offset="4e-07" stop-color="#C74225"/>
<stop offset="1" stop-color="#090A0A"/>
</linearGradient>
<linearGradient id="paint11_linear_249_10960" x1="148.899" y1="155.868" x2="147.949" y2="220.731" gradientUnits="userSpaceOnUse">
<stop offset="4e-07" stop-color="#F35A38"/>
<stop offset="1" stop-color="#404446"/>
</linearGradient>
<linearGradient id="paint12_linear_249_10960" x1="151.622" y1="40.1922" x2="156.848" y2="62.914" gradientUnits="userSpaceOnUse">
<stop offset="2.7e-07" stop-color="#FFD2D2"/>
<stop offset="1" stop-color="#FFA4A4"/>
</linearGradient>
<linearGradient id="paint13_linear_249_10960" x1="139.945" y1="106.568" x2="108.574" y2="100.999" gradientUnits="userSpaceOnUse">
<stop offset="2.7e-07" stop-color="#FFD2D2"/>
<stop offset="1" stop-color="#FFA4A4"/>
</linearGradient>
<linearGradient id="paint14_linear_249_10960" x1="134.507" y1="111.812" x2="126.257" y2="111.305" gradientUnits="userSpaceOnUse">
<stop offset="2.7e-07" stop-color="#FFD2D2"/>
<stop offset="1" stop-color="#FFA4A4"/>
</linearGradient>
<linearGradient id="paint15_linear_249_10960" x1="110.753" y1="189.163" x2="111.149" y2="167.198" gradientUnits="userSpaceOnUse">
<stop offset="2.7e-07" stop-color="#FFD2D2"/>
<stop offset="1" stop-color="#FFA4A4"/>
</linearGradient>
<linearGradient id="paint16_linear_249_10960" x1="130.832" y1="249.664" x2="138.562" y2="249.664" gradientUnits="userSpaceOnUse">
<stop offset="4e-07" stop-color="#85B1FF"/>
<stop offset="1" stop-color="#5A8DFF"/>
</linearGradient>
<linearGradient id="paint17_linear_249_10960" x1="124.504" y1="216.495" x2="131.567" y2="216.495" gradientUnits="userSpaceOnUse">
<stop offset="4e-07" stop-color="#85B1FF"/>
<stop offset="1" stop-color="#5A8DFF"/>
</linearGradient>
<linearGradient id="paint18_linear_249_10960" x1="56.2149" y1="162.584" x2="41.3311" y2="83.4399" gradientUnits="userSpaceOnUse">
<stop stop-color="#FA732D"/>
<stop offset="1" stop-color="#C74225"/>
</linearGradient>
<linearGradient id="paint19_linear_249_10960" x1="99.3238" y1="90.3487" x2="35.6569" y2="118.18" gradientUnits="userSpaceOnUse">
<stop offset="2.7e-07" stop-color="#FFD2D2"/>
<stop offset="1" stop-color="#FFA4A4"/>
</linearGradient>
<linearGradient id="paint20_linear_249_10960" x1="53.4791" y1="102.259" x2="38.9504" y2="79.4867" gradientUnits="userSpaceOnUse">
<stop offset="2.7e-07" stop-color="#FFD2D2"/>
<stop offset="1" stop-color="#FFA4A4"/>
</linearGradient>
<linearGradient id="paint21_linear_249_10960" x1="50.3374" y1="99.2468" x2="43.1833" y2="95.5929" gradientUnits="userSpaceOnUse">
<stop offset="2.7e-07" stop-color="#FFD2D2"/>
<stop offset="1" stop-color="#FFA4A4"/>
</linearGradient>
<linearGradient id="paint22_linear_249_10960" x1="53.5808" y1="252.65" x2="50.4935" y2="177.24" gradientUnits="userSpaceOnUse">
<stop offset="4e-07"/>
<stop offset="1" stop-color="#EAB49B"/>
</linearGradient>
<linearGradient id="paint23_linear_249_10960" x1="72.6421" y1="251.87" x2="69.5547" y2="176.46" gradientUnits="userSpaceOnUse">
<stop offset="4e-07"/>
<stop offset="1" stop-color="#EAB49B"/>
</linearGradient>
<linearGradient id="paint24_linear_249_10960" x1="51.7753" y1="135.478" x2="13.5291" y2="110.679" gradientUnits="userSpaceOnUse">
<stop offset="2.7e-07" stop-color="#FFD2D2"/>
<stop offset="1" stop-color="#FFA4A4"/>
</linearGradient>
<clipPath id="clip0_249_10960">
<rect width="262" height="261" fill="white"/>
</clipPath>
</defs>
</svg>
