<svg width="188" height="123" viewBox="0 0 188 123" fill="none" xmlns="http://www.w3.org/2000/svg">
<path d="M135.307 38.9766C133.093 36.7623 130.465 35.0058 127.573 33.8073C124.681 32.6089 121.581 31.9921 118.45 31.9921C115.319 31.9921 112.219 32.6089 109.327 33.8073C106.434 35.0058 103.806 36.7623 101.593 38.9766L96.9999 43.57L92.4065 38.9766C87.9359 34.506 81.8723 31.9944 75.5499 31.9944C69.2274 31.9944 63.1639 34.506 58.6932 38.9766C54.2225 43.4473 51.7109 49.5108 51.7109 55.8333C51.7109 62.1558 54.2225 68.2193 58.6932 72.69L63.2865 77.2833L96.9999 110.997L130.713 77.2833L135.307 72.69C137.521 70.4767 139.277 67.8488 140.476 64.9565C141.674 62.0642 142.291 58.9641 142.291 55.8333C142.291 52.7025 141.674 49.6024 140.476 46.7101C139.277 43.8178 137.521 41.1899 135.307 38.9766V38.9766Z" stroke="#C74225" stroke-width="3" stroke-linecap="round" stroke-linejoin="round"/>
<path d="M162.081 16.9999L166.145 8C166.954 8 167.729 8.31607 168.301 8.87867C168.872 9.44128 169.193 10.2043 169.193 11V15H174.945C175.239 14.9967 175.531 15.0565 175.8 15.1752C176.069 15.2939 176.308 15.4687 176.501 15.6875C176.695 15.9062 176.837 16.1638 176.919 16.4422C177.002 16.7206 177.021 17.0133 176.977 17.2999L175.575 26.2999C175.501 26.7768 175.255 27.2115 174.882 27.5239C174.508 27.8363 174.033 28.0053 173.542 27.9999H162.081M162.081 16.9999V27.9999M162.081 16.9999H159.032C158.493 16.9999 157.976 17.2107 157.595 17.5857C157.214 17.9608 157 18.4695 157 18.9999V25.9999C157 26.5303 157.214 27.039 157.595 27.4141C157.976 27.7892 158.493 27.9999 159.032 27.9999H162.081" stroke="#C74225" stroke-linecap="round" stroke-linejoin="round"/>
<path d="M6.08062 52.9999L10.1451 44C10.9536 44 11.729 44.3161 12.3006 44.8787C12.8723 45.4413 13.1935 46.2043 13.1935 47V51H18.9447C19.2393 50.9967 19.5311 51.0565 19.7999 51.1752C20.0687 51.2939 20.308 51.4687 20.5013 51.6875C20.6946 51.9062 20.8373 52.1638 20.9194 52.4422C21.0016 52.7206 21.0212 53.0133 20.977 53.2999L19.5747 62.2999C19.5012 62.7768 19.2551 63.2115 18.8816 63.5239C18.5082 63.8363 18.0326 64.0053 17.5425 63.9999H6.08062M6.08062 52.9999V63.9999M6.08062 52.9999H3.03225C2.49326 52.9999 1.97635 53.2107 1.59523 53.5857C1.21411 53.9608 1 54.4695 1 54.9999V61.9999C1 62.5303 1.21411 63.039 1.59523 63.4141C1.97635 63.7892 2.49326 63.9999 3.03225 63.9999H6.08062" stroke="#C74225" stroke-linecap="round" stroke-linejoin="round"/>
<path d="M46.8434 2.14929C46.4768 1.78493 46.0417 1.4959 45.5627 1.2987C45.0837 1.1015 44.5704 1 44.0519 1C43.5335 1 43.0201 1.1015 42.5411 1.2987C42.0621 1.4959 41.627 1.78493 41.2605 2.14929L40.4998 2.90512L39.7392 2.14929C38.9988 1.41366 37.9947 1.00038 36.9477 1.00038C35.9007 1.00038 34.8966 1.41366 34.1563 2.14929C33.4159 2.88493 33 3.88267 33 4.92302C33 5.96336 33.4159 6.9611 34.1563 7.69674L34.9169 8.45256L40.4998 14L46.0827 8.45256L46.8434 7.69674C47.21 7.33255 47.5009 6.90014 47.6994 6.42422C47.8979 5.94829 48 5.43818 48 4.92302C48 4.40785 47.8979 3.89774 47.6994 3.42182C47.5009 2.94589 47.21 2.51348 46.8434 2.14929V2.14929Z" stroke="#C74225" stroke-opacity="0.5" stroke-linecap="round" stroke-linejoin="round"/>
<path d="M185.843 69.1493C185.477 68.7849 185.042 68.4959 184.563 68.2987C184.084 68.1015 183.57 68 183.052 68C182.533 68 182.02 68.1015 181.541 68.2987C181.062 68.4959 180.627 68.7849 180.26 69.1493L179.5 69.9051L178.739 69.1493C177.999 68.4137 176.995 68.0004 175.948 68.0004C174.901 68.0004 173.897 68.4137 173.156 69.1493C172.416 69.8849 172 70.8827 172 71.923C172 72.9634 172.416 73.9611 173.156 74.6967L173.917 75.4526L179.5 81L185.083 75.4526L185.843 74.6967C186.21 74.3325 186.501 73.9001 186.699 73.4242C186.898 72.9483 187 72.4382 187 71.923C187 71.4079 186.898 70.8977 186.699 70.4218C186.501 69.9459 186.21 69.5135 185.843 69.1493V69.1493Z" stroke="#C74225" stroke-opacity="0.5" stroke-linecap="round" stroke-linejoin="round"/>
<path d="M135.064 113H132.626C132.195 113 131.781 112.831 131.476 112.531C131.171 112.231 131 111.824 131 111.4V105.8C131 105.376 131.171 104.969 131.476 104.669C131.781 104.369 132.195 104.2 132.626 104.2H135.064M140.755 102.6V99.4C140.755 98.7635 140.498 98.153 140.041 97.7029C139.583 97.2529 138.963 97 138.316 97L135.064 104.2V113H144.234C144.626 113.004 145.007 112.869 145.305 112.619C145.604 112.369 145.801 112.021 145.86 111.64L146.982 104.44C147.017 104.211 147.001 103.977 146.936 103.754C146.87 103.531 146.756 103.325 146.601 103.15C146.446 102.975 146.255 102.835 146.04 102.74C145.825 102.645 145.591 102.597 145.356 102.6H140.755Z" stroke="#C74225" stroke-opacity="0.5" stroke-linecap="round" stroke-linejoin="round"/>
<path d="M34.7943 110H33.1177C32.8213 110 32.537 109.884 32.3274 109.678C32.1178 109.471 32 109.192 32 108.9V105.05C32 104.758 32.1178 104.478 32.3274 104.272C32.537 104.066 32.8213 103.95 33.1177 103.95H34.7943M38.7064 102.85V100.65C38.7064 100.212 38.5298 99.7927 38.2153 99.4833C37.9009 99.1738 37.4745 99 37.0298 99L34.7943 103.95V110H41.0984C41.3679 110.003 41.6295 109.91 41.8349 109.738C42.0403 109.566 42.1757 109.327 42.2161 109.065L42.9873 104.115C43.0117 103.957 43.0009 103.796 42.9557 103.643C42.9105 103.49 42.832 103.348 42.7257 103.228C42.6194 103.108 42.4878 103.012 42.3399 102.946C42.1921 102.881 42.0316 102.848 41.8696 102.85H38.7064Z" stroke="#C74225" stroke-opacity="0.5" stroke-linecap="round" stroke-linejoin="round"/>
</svg>
