<svg width="23" height="20" viewBox="0 0 23 20" fill="none" xmlns="http://www.w3.org/2000/svg">
<path d="M11.673 0.61192L19.8 7.99992H16.827L11 2.70292L5 8.15792V17.9999H10V19.9999H4C3.73478 19.9999 3.48043 19.8946 3.29289 19.707C3.10536 19.5195 3 19.2651 3 18.9999V9.99992H0L10.327 0.61192C10.5111 0.444398 10.7511 0.351562 11 0.351562C11.2489 0.351563 11.4889 0.444398 11.673 0.61192ZM13 9.99992H22V16.9999H13V9.99992ZM15 11.9999V14.9999H20V11.9999H15ZM23 19.9999H12V17.9999H23V19.9999Z" fill="black"/>
</svg>
