<svg width="30" height="30" viewBox="0 0 30 30" fill="none" xmlns="http://www.w3.org/2000/svg">
<path d="M29.4694 9.03012C29.4531 7.80647 29.2241 6.59499 28.7925 5.44987C28.4182 4.48396 27.8466 3.60675 27.1141 2.87427C26.3816 2.14179 25.5044 1.57016 24.5385 1.19589C23.4081 0.771559 22.2139 0.542113 21.0067 0.517327C19.4525 0.447855 18.9597 0.428467 15.0143 0.428467C11.0689 0.428467 10.5633 0.428467 9.02032 0.517327C7.81369 0.542295 6.62004 0.771738 5.49015 1.19589C4.52409 1.5699 3.64674 2.14144 2.91423 2.87395C2.18172 3.60646 1.61018 4.48381 1.23618 5.44987C0.810992 6.57941 0.582044 7.77333 0.559226 8.98003C0.489753 10.5359 0.46875 11.0287 0.46875 14.974C0.46875 18.9194 0.46875 19.4235 0.559226 20.9681C0.58346 22.1766 0.811265 23.3689 1.23618 24.5015C1.61081 25.4672 2.18277 26.3442 2.91553 27.0764C3.64828 27.8086 4.52572 28.3799 5.49177 28.7538C6.61857 29.1952 7.81242 29.4411 9.02193 29.4808C10.5778 29.5503 11.0706 29.5713 15.0159 29.5713C18.9613 29.5713 19.467 29.5713 21.01 29.4808C22.2171 29.4571 23.4114 29.2282 24.5417 28.8039C25.5074 28.4292 26.3844 27.8574 27.1168 27.125C27.8492 26.3926 28.421 25.5156 28.7957 24.5499C29.2206 23.419 29.4484 22.2266 29.4727 21.0165C29.5421 19.4623 29.5631 18.9695 29.5631 15.0225C29.5599 11.0771 29.5599 10.5763 29.4694 9.03012V9.03012ZM15.0046 22.4351C10.8783 22.4351 7.53555 19.0923 7.53555 14.966C7.53555 10.8396 10.8783 7.49688 15.0046 7.49688C16.9856 7.49688 18.8854 8.2838 20.2861 9.68452C21.6868 11.0853 22.4737 12.985 22.4737 14.966C22.4737 16.9469 21.6868 18.8467 20.2861 20.2474C18.8854 21.6481 16.9856 22.4351 15.0046 22.4351V22.4351ZM22.771 8.96226C22.5422 8.96247 22.3157 8.91757 22.1042 8.83012C21.8928 8.74267 21.7008 8.61439 21.539 8.45262C21.3772 8.29085 21.2489 8.09876 21.1615 7.88736C21.074 7.67596 21.0291 7.44938 21.0293 7.2206C21.0293 6.99199 21.0744 6.76562 21.1619 6.55441C21.2493 6.3432 21.3776 6.15129 21.5392 5.98964C21.7009 5.82799 21.8928 5.69976 22.104 5.61227C22.3152 5.52478 22.5416 5.47976 22.7702 5.47976C22.9988 5.47976 23.2252 5.52478 23.4364 5.61227C23.6476 5.69976 23.8395 5.82799 24.0012 5.98964C24.1628 6.15129 24.291 6.3432 24.3785 6.55441C24.466 6.76562 24.511 6.99199 24.511 7.2206C24.511 8.18352 23.7323 8.96226 22.771 8.96226Z" fill="#C74225"/>
<path d="M15.0061 19.8178C17.6856 19.8178 19.8578 17.6456 19.8578 14.9661C19.8578 12.2865 17.6856 10.1143 15.0061 10.1143C12.3265 10.1143 10.1543 12.2865 10.1543 14.9661C10.1543 17.6456 12.3265 19.8178 15.0061 19.8178Z" fill="#C74225"/>
</svg>
