<svg width="203" height="125" viewBox="0 0 203 125" fill="none" xmlns="http://www.w3.org/2000/svg">
<path d="M78.3327 116.333H65.3327C63.0341 116.333 60.8297 115.42 59.2044 113.795C57.5791 112.17 56.666 109.965 56.666 107.667V77.3334C56.666 75.0348 57.5791 72.8304 59.2044 71.2051C60.8297 69.5798 63.0341 68.6667 65.3327 68.6667H78.3327M108.666 60V42.6667C108.666 39.2189 107.296 35.9123 104.858 33.4743C102.42 31.0363 99.1138 29.6667 95.666 29.6667L78.3327 68.6667V116.333H127.213C129.303 116.357 131.331 115.624 132.924 114.271C134.516 112.917 135.566 111.033 135.879 108.967L141.859 69.9667C142.048 68.7246 141.964 67.4563 141.614 66.2498C141.264 65.0432 140.655 63.9273 139.831 62.9793C139.006 62.0312 137.986 61.2737 136.839 60.7593C135.693 60.2449 134.449 59.9858 133.193 60H108.666Z" stroke="#C74225" stroke-width="3" stroke-linecap="round" stroke-linejoin="round"/>
<path d="M8.75 79.5H5C4.33696 79.5 3.70107 79.2366 3.23223 78.7678C2.76339 78.2989 2.5 77.663 2.5 77V68.25C2.5 67.587 2.76339 66.9511 3.23223 66.4822C3.70107 66.0134 4.33696 65.75 5 65.75H8.75M17.5 63.25V58.25C17.5 57.2554 17.1049 56.3016 16.4017 55.5983C15.6984 54.8951 14.7446 54.5 13.75 54.5L8.75 65.75V79.5H22.85C23.4529 79.5068 24.038 79.2955 24.4974 78.905C24.9568 78.5145 25.2596 77.9711 25.35 77.375L27.075 66.125C27.1294 65.7667 27.1052 65.4009 27.0042 65.0528C26.9031 64.7048 26.7276 64.3829 26.4898 64.1094C26.252 63.8359 25.9576 63.6174 25.627 63.469C25.2963 63.3206 24.9374 63.2459 24.575 63.25H17.5Z" stroke="#C74225" stroke-linecap="round" stroke-linejoin="round"/>
<path d="M157.081 36.9999H154.032C153.493 36.9999 152.976 36.7892 152.595 36.4141C152.214 36.039 152 35.5303 152 34.9999V27.9999C152 27.4695 152.214 26.9608 152.595 26.5857C152.976 26.2107 153.493 25.9999 154.032 25.9999H157.081M164.193 24V20C164.193 19.2043 163.872 18.4413 163.301 17.8787C162.729 17.3161 161.954 17 161.145 17L157.081 25.9999V36.9999H168.542C169.033 37.0053 169.508 36.8363 169.882 36.5239C170.255 36.2115 170.501 35.7768 170.575 35.2999L171.977 26.2999C172.021 26.0133 172.002 25.7206 171.919 25.4422C171.837 25.1638 171.695 24.9062 171.501 24.6875C171.308 24.4687 171.069 24.2939 170.8 24.1752C170.531 24.0565 170.239 23.9967 169.945 24H164.193Z" stroke="#C74225" stroke-linecap="round" stroke-linejoin="round"/>
<path d="M31.0645 8.19995L34.3161 1C34.9629 1 35.5832 1.25285 36.0405 1.70294C36.4979 2.15302 36.7548 2.76347 36.7548 3.39998V6.59996H41.3558C41.5915 6.59734 41.8249 6.64517 42.0399 6.74014C42.2549 6.83511 42.4464 6.97495 42.601 7.14997C42.7557 7.32499 42.8698 7.53102 42.9355 7.75376C43.0012 7.9765 43.017 8.21064 42.9816 8.43995L41.8598 15.6399C41.801 16.0214 41.6041 16.3692 41.3053 16.6191C41.0066 16.869 40.6261 17.0043 40.234 16.9999H31.0645M31.0645 8.19995V16.9999M31.0645 8.19995H28.6258C28.1946 8.19995 27.7811 8.36852 27.4762 8.66858C27.1713 8.96864 27 9.3756 27 9.79994V15.3999C27 15.8243 27.1713 16.2312 27.4762 16.5313C27.7811 16.8313 28.1946 16.9999 28.6258 16.9999H31.0645" stroke="#C74225" stroke-opacity="0.5" stroke-linecap="round" stroke-linejoin="round"/>
<path d="M187.827 97.9999H184.931C184.419 97.9999 183.928 97.7997 183.565 97.4434C183.203 97.0871 183 96.6038 183 96.0999V89.4499C183 88.946 183.203 88.4628 183.565 88.1064C183.928 87.7501 184.419 87.5499 184.931 87.5499H187.827M194.584 85.65V81.85C194.584 81.0941 194.279 80.3692 193.736 79.8347C193.193 79.3003 192.456 79 191.688 79L187.827 87.5499V97.9999H198.715C199.181 98.0051 199.633 97.8445 199.988 97.5477C200.342 97.2509 200.576 96.8379 200.646 96.3849L201.978 87.8349C202.02 87.5626 202.001 87.2846 201.923 87.0201C201.845 86.7556 201.71 86.5109 201.526 86.3031C201.343 86.0953 201.115 85.9292 200.86 85.8164C200.605 85.7036 200.327 85.6468 200.048 85.65H194.584Z" stroke="#C74225" stroke-linecap="round" stroke-linejoin="round"/>
<path d="M168.064 120H165.626C165.195 120 164.781 119.831 164.476 119.531C164.171 119.231 164 118.824 164 118.4V112.8C164 112.376 164.171 111.969 164.476 111.669C164.781 111.369 165.195 111.2 165.626 111.2H168.064M173.755 109.6V106.4C173.755 105.763 173.498 105.153 173.041 104.703C172.583 104.253 171.963 104 171.316 104L168.064 111.2V120H177.234C177.626 120.004 178.007 119.869 178.305 119.619C178.604 119.369 178.801 119.021 178.86 118.64L179.982 111.44C180.017 111.211 180.001 110.977 179.936 110.754C179.87 110.531 179.756 110.325 179.601 110.15C179.446 109.975 179.255 109.835 179.04 109.74C178.825 109.645 178.591 109.597 178.356 109.6H173.755Z" stroke="#C74225" stroke-opacity="0.5" stroke-linecap="round" stroke-linejoin="round"/>
<path d="M29.7943 119H28.1177C27.8213 119 27.537 118.884 27.3274 118.678C27.1178 118.471 27 118.192 27 117.9V114.05C27 113.758 27.1178 113.478 27.3274 113.272C27.537 113.066 27.8213 112.95 28.1177 112.95H29.7943M33.7064 111.85V109.65C33.7064 109.212 33.5298 108.793 33.2153 108.483C32.9009 108.174 32.4745 108 32.0298 108L29.7943 112.95V119H36.0984C36.3679 119.003 36.6295 118.91 36.8349 118.738C37.0403 118.566 37.1757 118.327 37.2161 118.065L37.9873 113.115C38.0117 112.957 38.0009 112.796 37.9557 112.643C37.9105 112.49 37.832 112.348 37.7257 112.228C37.6194 112.108 37.4878 112.012 37.3399 111.946C37.1921 111.881 37.0316 111.848 36.8696 111.85H33.7064Z" stroke="#C74225" stroke-opacity="0.5" stroke-linecap="round" stroke-linejoin="round"/>
</svg>
