<svg width="16" height="17" viewBox="0 0 16 17" fill="none" xmlns="http://www.w3.org/2000/svg">
<g clip-path="url(#clip0_0_12702)">
<path fill-rule="evenodd" clip-rule="evenodd" d="M8.00013 12.5376C10.3195 12.5376 12.1998 10.6258 12.1998 8.26736C12.1998 5.90895 10.3195 3.99709 8.00013 3.99709C5.68074 3.99709 3.8005 5.90895 3.8005 8.26736C3.8005 10.6258 5.68074 12.5376 8.00013 12.5376ZM8.00013 13.7684C10.988 13.7684 13.4102 11.3055 13.4102 8.26736C13.4102 5.22923 10.988 2.76634 8.00013 2.76634C5.01226 2.76634 2.5901 5.22923 2.5901 8.26736C2.5901 11.3055 5.01226 13.7684 8.00013 13.7684Z" fill="#C74225"/>
<path fill-rule="evenodd" clip-rule="evenodd" d="M0 8.60098C0 8.26112 0.270956 7.98561 0.605196 7.98561H5.39345C5.72769 7.98561 5.99864 8.26112 5.99864 8.60098C5.99864 8.94084 5.72769 9.21636 5.39345 9.21636H0.605196C0.270956 9.21636 0 8.94084 0 8.60098Z" fill="#C74225"/>
<path fill-rule="evenodd" clip-rule="evenodd" d="M8.09419 0.267578C8.42843 0.267578 8.69938 0.518596 8.69938 0.828243V5.26416C8.69938 5.57381 8.42843 5.82483 8.09419 5.82483C7.75995 5.82483 7.48899 5.57381 7.48899 5.26416V0.828243C7.48899 0.518596 7.75995 0.267578 8.09419 0.267578Z" fill="#C74225"/>
<path fill-rule="evenodd" clip-rule="evenodd" d="M8.09419 11.0685C8.42843 11.0685 8.69938 11.3033 8.69938 11.593V15.743C8.69938 16.0327 8.42843 16.2676 8.09419 16.2676C7.75995 16.2676 7.48899 16.0327 7.48899 15.743V11.593C7.48899 11.3033 7.75995 11.0685 8.09419 11.0685Z" fill="#C74225"/>
<path fill-rule="evenodd" clip-rule="evenodd" d="M10.2342 8.60098C10.2342 8.26112 10.4947 7.98561 10.8159 7.98561H15.4183C15.7396 7.98561 16 8.26112 16 8.60098C16 8.94084 15.7396 9.21636 15.4183 9.21636H10.8159C10.4947 9.21636 10.2342 8.94084 10.2342 8.60098Z" fill="#C74225"/>
</g>
<defs>
<clipPath id="clip0_0_12702">
<rect width="16" height="16" fill="white" transform="translate(0 0.267578)"/>
</clipPath>
</defs>
</svg>
