<svg width="260" height="45" viewBox="0 0 260 45" fill="none" xmlns="http://www.w3.org/2000/svg">
<path d="M22.5 3.75L28.2938 15.4875L41.25 17.3812L31.875 26.5125L34.0875 39.4125L22.5 33.3187L10.9125 39.4125L13.125 26.5125L3.75 17.3812L16.7062 15.4875L22.5 3.75Z" fill="#C74225"/>
<path d="M76.5 3.75L82.2938 15.4875L95.25 17.3812L85.875 26.5125L88.0875 39.4125L76.5 33.3187L64.9125 39.4125L67.125 26.5125L57.75 17.3812L70.7062 15.4875L76.5 3.75Z" fill="#C74225"/>
<path d="M183.5 3.75L189.294 15.4875L202.25 17.3812L192.875 26.5125L195.088 39.4125L183.5 33.3187L171.912 39.4125L174.125 26.5125L164.75 17.3812L177.706 15.4875L183.5 3.75Z" fill="white" stroke="#C74225" stroke-width="1.5" stroke-linecap="round" stroke-linejoin="round"/>
<path d="M129.999 3.75L135.664 15.4875L148.333 17.3812L139.166 26.5125L141.329 39.4125L129.999 33.3187L118.669 39.4125L120.833 26.5125L111.666 17.3812L124.334 15.4875L129.999 3.75Z" fill="#C74225"/>
<path d="M237.5 3.75L243.294 15.4875L256.25 17.3812L246.875 26.5125L249.088 39.4125L237.5 33.3187L225.912 39.4125L228.125 26.5125L218.75 17.3812L231.706 15.4875L237.5 3.75Z" fill="white" stroke="#C74225" stroke-width="1.5" stroke-linecap="round" stroke-linejoin="round"/>
</svg>
