<svg width="40" height="38" viewBox="0 0 40 38" fill="none" xmlns="http://www.w3.org/2000/svg">
<g filter="url(#filter0_d_1_12603)">
<path d="M14.0865 29.8845C26.1149 29.8845 32.6939 19.9191 32.6939 11.2771C32.6939 10.9941 32.6939 10.7123 32.6748 10.4318C33.9547 9.50603 35.0595 8.35977 35.9375 7.04667C34.7439 7.57554 33.4778 7.92238 32.1814 8.0756C33.5465 7.2583 34.5683 5.97283 35.0565 4.45842C33.7727 5.22018 32.3683 5.75702 30.9038 6.0458C29.9178 4.99734 28.6137 4.30308 27.1934 4.07045C25.773 3.83782 24.3156 4.07979 23.0467 4.75891C21.7777 5.43803 20.768 6.51645 20.1736 7.82727C19.5793 9.1381 19.4336 10.6083 19.759 12.0102C17.159 11.8799 14.6154 11.2042 12.2934 10.0271C9.97147 8.84997 7.92299 7.19769 6.281 5.17752C5.44472 6.6172 5.18858 8.32149 5.56474 9.94339C5.9409 11.5653 6.92108 12.9829 8.3057 13.9074C7.26497 13.8766 6.24693 13.5959 5.3375 13.0889C5.3375 13.1157 5.3375 13.1437 5.3375 13.1718C5.33791 14.6816 5.86058 16.1449 6.81686 17.3134C7.77314 18.4818 9.10414 19.2835 10.5841 19.5825C9.62133 19.845 8.61116 19.8834 7.63122 19.6947C8.04912 20.9941 8.8627 22.1304 9.95819 22.9447C11.0537 23.759 12.3763 24.2106 13.741 24.2362C11.4253 26.0562 8.5646 27.0442 5.61927 27.0412C5.09895 27.0402 4.57914 27.0087 4.0625 26.9469C7.05319 28.8661 10.533 29.8841 14.0865 29.8794" fill="#C74225"/>
</g>
<defs>
<filter id="filter0_d_1_12603" x="-1" y="0" width="42" height="42" filterUnits="userSpaceOnUse" color-interpolation-filters="sRGB">
<feFlood flood-opacity="0" result="BackgroundImageFix"/>
<feColorMatrix in="SourceAlpha" type="matrix" values="0 0 0 0 0 0 0 0 0 0 0 0 0 0 0 0 0 0 127 0" result="hardAlpha"/>
<feOffset dy="4"/>
<feGaussianBlur stdDeviation="2"/>
<feComposite in2="hardAlpha" operator="out"/>
<feColorMatrix type="matrix" values="0 0 0 0 0 0 0 0 0 0 0 0 0 0 0 0 0 0 0.25 0"/>
<feBlend mode="normal" in2="BackgroundImageFix" result="effect1_dropShadow_1_12603"/>
<feBlend mode="normal" in="SourceGraphic" in2="effect1_dropShadow_1_12603" result="shape"/>
</filter>
</defs>
</svg>
