<svg width="20" height="20" viewBox="0 0 20 20" fill="none" xmlns="http://www.w3.org/2000/svg">
<path d="M10.04 5.95696e-05C4.57999 5.95696e-05 0.129988 4.45006 0.129988 9.91006C0.129988 11.6601 0.589988 13.3601 1.44999 14.8601L0.0499878 20.0001L5.29999 18.6201C6.74999 19.4101 8.37999 19.8301 10.04 19.8301C15.5 19.8301 19.95 15.3801 19.95 9.92006C19.95 7.27006 18.92 4.78006 17.05 2.91006C16.1332 1.98399 15.0412 1.24973 13.8376 0.750111C12.6341 0.250494 11.3431 -0.00448012 10.04 5.95696e-05ZM10.05 1.67006C12.25 1.67006 14.31 2.53006 15.87 4.09006C16.6356 4.85541 17.2426 5.76438 17.6561 6.76482C18.0697 7.76526 18.2817 8.83751 18.28 9.92006C18.28 14.4601 14.58 18.1501 10.04 18.1501C8.55999 18.1501 7.10999 17.7601 5.84999 17.0001L5.54999 16.8301L2.42999 17.6501L3.25999 14.6101L3.05999 14.2901C2.23393 12.9787 1.797 11.4599 1.79999 9.91006C1.80999 5.37006 5.49999 1.67006 10.05 1.67006ZM6.52999 5.33006C6.36999 5.33006 6.09999 5.39006 5.86999 5.64006C5.64999 5.89006 4.99999 6.50006 4.99999 7.71006C4.99999 8.93006 5.88999 10.1001 5.99999 10.2701C6.13999 10.4401 7.75999 12.9401 10.25 14.0001C10.84 14.2701 11.3 14.4201 11.66 14.5301C12.25 14.7201 12.79 14.6901 13.22 14.6301C13.7 14.5601 14.68 14.0301 14.89 13.4501C15.1 12.8701 15.1 12.3801 15.04 12.2701C14.97 12.1701 14.81 12.1101 14.56 12.0001C14.31 11.8601 13.09 11.2601 12.87 11.1801C12.64 11.1001 12.5 11.0601 12.31 11.3001C12.15 11.5501 11.67 12.1101 11.53 12.2701C11.38 12.4401 11.24 12.4601 11 12.3401C10.74 12.2101 9.93999 11.9501 8.99999 11.1101C8.25999 10.4501 7.76999 9.64006 7.61999 9.39006C7.49999 9.15006 7.60999 9.00006 7.72999 8.89006C7.83999 8.78006 7.99999 8.60006 8.09999 8.45006C8.22999 8.31006 8.26999 8.20006 8.34999 8.04006C8.42999 7.87006 8.38999 7.73006 8.32999 7.61006C8.26999 7.50006 7.76999 6.26006 7.55999 5.77006C7.35999 5.29006 7.15999 5.35006 6.99999 5.34006C6.85999 5.34006 6.69999 5.33006 6.52999 5.33006Z" fill="#090A0A"/>
</svg>
