<svg width="33" height="33" viewBox="0 0 33 33" fill="none" xmlns="http://www.w3.org/2000/svg">
<g clip-path="url(#clip0_352_17382)">
<path d="M23.2587 20.0766V22.0766C23.2595 22.2623 23.2215 22.4461 23.1471 22.6162C23.0727 22.7863 22.9636 22.939 22.8268 23.0645C22.69 23.19 22.5285 23.2856 22.3526 23.3451C22.1767 23.4046 21.9903 23.4267 21.8054 23.4099C19.754 23.187 17.7834 22.486 16.0521 21.3633C14.4413 20.3397 13.0756 18.9741 12.0521 17.3633C10.9254 15.6241 10.2242 13.6439 10.0054 11.5833C9.98875 11.3989 10.0107 11.2131 10.0697 11.0377C10.1288 10.8623 10.2238 10.7011 10.3486 10.5644C10.4734 10.4276 10.6253 10.3184 10.7946 10.2436C10.9639 10.1688 11.147 10.1301 11.3321 10.1299H13.3321C13.6556 10.1268 13.9693 10.2413 14.2146 10.4523C14.4599 10.6633 14.6201 10.9562 14.6654 11.2766C14.7498 11.9167 14.9064 12.5451 15.1321 13.1499C15.2218 13.3886 15.2412 13.6479 15.188 13.8972C15.1348 14.1465 15.0113 14.3754 14.8321 14.5566L13.9854 15.4033C14.9344 17.0723 16.3164 18.4542 17.9854 19.4033L18.8321 18.5566C19.0133 18.3774 19.2422 18.2538 19.4915 18.2007C19.7408 18.1475 20.0001 18.1669 20.2387 18.2566C20.8436 18.4823 21.472 18.6389 22.1121 18.7233C22.4359 18.769 22.7317 18.9321 22.9431 19.1816C23.1545 19.4311 23.2669 19.7497 23.2587 20.0766Z" stroke="#C74225" stroke-width="1.5" stroke-linecap="round" stroke-linejoin="round"/>
</g>
<rect x="0.5" y="1.12988" width="32" height="31" rx="15.5" stroke="#C74225"/>
<defs>
<clipPath id="clip0_352_17382">
<rect width="16" height="16" fill="white" transform="translate(8.5 8.62988)"/>
</clipPath>
</defs>
</svg>
