<svg width="32" height="32" viewBox="0 0 32 32" fill="none" xmlns="http://www.w3.org/2000/svg">
<rect x="0.563477" y="0.5" width="30.7091" height="31" rx="15.3545" stroke="#A8A8A8"/>
<path d="M9.91797 12.0002H11.2513M11.2513 12.0002H21.918M11.2513 12.0002V21.3335C11.2513 21.6871 11.3918 22.0263 11.6418 22.2763C11.8919 22.5264 12.231 22.6668 12.5846 22.6668H19.2513C19.6049 22.6668 19.9441 22.5264 20.1941 22.2763C20.4442 22.0263 20.5846 21.6871 20.5846 21.3335V12.0002H11.2513ZM13.2513 12.0002V10.6668C13.2513 10.3132 13.3918 9.97407 13.6418 9.72402C13.8919 9.47397 14.231 9.3335 14.5846 9.3335H17.2513C17.6049 9.3335 17.9441 9.47397 18.1941 9.72402C18.4442 9.97407 18.5846 10.3132 18.5846 10.6668V12.0002M14.5846 15.3335V19.3335M17.2513 15.3335V19.3335" stroke="#C74225" stroke-width="1.5" stroke-linecap="round" stroke-linejoin="round"/>
</svg>
