<svg width="33" height="33" viewBox="0 0 33 33" fill="none" xmlns="http://www.w3.org/2000/svg">
<rect x="1.125" y="0.774414" width="31" height="31" rx="15.5" fill="white"/>
<path d="M16.625 21.6076H22.625M19.625 10.6076C19.8902 10.3424 20.2499 10.1934 20.625 10.1934C20.8107 10.1934 20.9946 10.2299 21.1662 10.301C21.3378 10.3721 21.4937 10.4763 21.625 10.6076C21.7563 10.7389 21.8605 10.8948 21.9316 11.0664C22.0026 11.238 22.0392 11.4219 22.0392 11.6076C22.0392 11.7933 22.0026 11.9772 21.9316 12.1488C21.8605 12.3203 21.7563 12.4763 21.625 12.6076L13.2917 20.9409L10.625 21.6076L11.2917 18.9409L19.625 10.6076Z" stroke="#C74225" stroke-width="1.5" stroke-linecap="round" stroke-linejoin="round"/>
<rect x="1.125" y="0.774414" width="31" height="31" rx="15.5" stroke="#A8A8A8"/>
</svg>
