<svg width="52" height="56" viewBox="0 0 52 56" fill="none" xmlns="http://www.w3.org/2000/svg">
<g id="Group">
<path id="Vector" d="M51.6068 40.1204C51.6068 41.7277 50.9682 43.2693 49.8317 44.4058C48.6951 45.5424 47.1535 46.1809 45.5462 46.1809H6.15238C4.54501 46.1809 3.00348 45.5424 1.8669 44.4058C0.730321 43.2693 0.0917969 41.7277 0.0917969 40.1204V10.2917C0.0917969 6.94472 8.86601 0.726562 12.213 0.726562H43.4629C48.1507 0.726562 51.6068 4.22958 51.6068 8.87047V40.1204Z" fill="#226699"/>
<path id="Vector_2" d="M48.5755 46.1824C48.5755 47.7898 47.937 49.3313 46.8004 50.4679C45.6638 51.6045 44.1223 52.243 42.5149 52.243H9.18168C7.57431 52.243 6.03278 51.6045 4.8962 50.4679C3.75962 49.3313 3.1211 47.7898 3.1211 46.1824V9.81893C3.1211 3.57805 3.08928 3.75835 10.6968 3.75835H42.5149C44.1223 3.75835 45.6638 4.39687 46.8004 5.53345C47.937 6.67003 48.5755 8.21157 48.5755 9.81893V46.1824Z" fill="#CCD6DD"/>
<path id="Vector_3" d="M45.5462 47.6941C45.5462 48.8996 45.0673 50.0558 44.2149 50.9082C43.3624 51.7606 42.2063 52.2395 41.0007 52.2395H4.63723C3.43171 52.2395 2.27556 51.7606 1.42312 50.9082C0.57069 50.0558 0.0917969 48.8996 0.0917969 47.6941V11.3306C0.0917969 10.1251 0.57069 8.96892 1.42312 8.11648C2.27556 7.26405 3.43171 6.78516 4.63723 6.78516H41.0007C42.2063 6.78516 43.3624 7.26405 44.2149 8.11648C45.0673 8.96892 45.5462 10.1251 45.5462 11.3306V47.6941Z" fill="#E1E8ED"/>
<path id="Vector_4" d="M45.5447 49.2102C45.5447 50.8176 44.9062 52.3591 43.7696 53.4957C42.633 54.6323 41.0915 55.2708 39.4841 55.2708H7.66605C6.05869 55.2708 4.51715 54.6323 3.38057 53.4957C2.24399 52.3591 1.60547 50.8176 1.60547 49.2102V15.877C1.60547 14.2696 2.24399 12.7281 3.38057 11.5915C4.51715 10.4549 6.05869 9.81641 7.66605 9.81641H39.4841C41.0915 9.81641 42.633 10.4549 43.7696 11.5915C44.9062 12.7281 45.5447 14.2696 45.5447 15.877V49.2102Z" fill="#3B88C3"/>
<path id="Vector_5" d="M42.5144 49.2112C42.5144 50.8185 41.8759 52.3601 40.7393 53.4966C39.6027 54.6332 38.0612 55.2717 36.4538 55.2717H7.66605C6.05869 55.2717 4.51715 54.6332 3.38057 53.4966C2.24399 52.3601 1.60547 50.8185 1.60547 49.2112V18.9082C1.60547 17.3009 2.24399 15.7593 3.38057 14.6228C4.51715 13.4862 6.05869 12.8477 7.66605 12.8477H36.9614C40.3084 12.8477 42.5144 15.0537 42.5144 18.4007V49.2112Z" fill="#55ACEE"/>
<path id="Vector_6" d="M7.66753 9.81744C5.10996 9.81744 5.04481 6.90533 6.15238 5.65079C7.41298 4.22503 9.37206 3.75685 12.8766 3.75685H15.2433V0.726562H11.1236C5.10996 0.726562 0.0917969 4.51443 0.0917969 8.87047V49.2112C0.0917969 50.8186 0.730321 52.3601 1.8669 53.4967C3.00348 54.6333 4.54501 55.2718 6.15238 55.2718H9.18267V9.81744H7.66753Z" fill="#226699"/>
</g>
</svg>
