<svg width="16" height="15" viewBox="0 0 16 15" fill="none" xmlns="http://www.w3.org/2000/svg">
<g id="Group">
<path id="Vector" d="M13.5837 2.25281C13.5835 2.25259 13.5833 2.25244 13.5831 2.25222L11.2381 1.44531L7.14453 2.25225V4.03791L13.8503 5.14422L15.0461 4.03791C14.6574 3.36616 14.162 2.76325 13.5837 2.25281Z" fill="#E7A52E"/>
<g id="Group_2">
<path id="Vector_2" d="M13.587 12.9671L10.5263 12.3848L7.14844 12.9671V14.7528H8.86325C10.6566 14.7528 12.2954 14.0918 13.5497 13.0002" fill="#E7A52E"/>
<path id="Vector_3" d="M7.14844 11.1808L11.9777 11.8799L15.0501 11.1808C15.3698 10.6281 15.6178 10.0287 15.7808 9.39513L12.1881 8.35938L7.14844 9.39513V11.1808Z" fill="#E7A52E"/>
</g>
<path id="Vector_4" d="M15.7769 5.82395L13.5831 4.51367L7.14453 5.82395V7.60961L14.1746 8.87898L16.0019 7.60961C16.0019 6.99292 15.9239 6.39473 15.7769 5.82395Z" fill="#E7A52E"/>
<path id="Vector_5" d="M15.006 7.60939C15.006 3.66464 11.8082 0.466797 7.86341 0.466797C7.62075 0.466797 7.38097 0.479016 7.14453 0.502672V14.752H7.86341C11.8081 14.752 15.006 11.5541 15.006 7.60939Z" fill="#E28424"/>
<g id="Group_3">
<path id="Vector_6" d="M13.587 2.25245C12.328 1.14133 10.6745 0.466797 8.86325 0.466797H7.14844V2.25245H13.587Z" fill="#C85929"/>
<path id="Vector_7" d="M7.14844 5.82277H15.7808C15.6178 5.18923 15.3698 4.58983 15.0501 4.03711H7.14844V5.82277Z" fill="#C85929"/>
<path id="Vector_8" d="M7.14844 9.39503H15.7808C15.9277 8.82428 16.0059 8.22597 16.0059 7.60938H7.14844V9.39503Z" fill="#C85929"/>
<path id="Vector_9" d="M7.14844 12.9673H13.587C14.1657 12.4566 14.6612 11.8539 15.0501 11.1816H7.14844V12.9673Z" fill="#C85929"/>
</g>
<path id="Vector_10" d="M14.0502 11.1816H7.14453V12.9673H12.5872C13.1659 12.4566 13.6613 11.8539 14.0502 11.1816Z" fill="#B94029"/>
<path id="Vector_11" d="M15.006 7.60938H7.14453V9.39503H14.781C14.9278 8.82428 15.006 8.22597 15.006 7.60938Z" fill="#B94029"/>
<path id="Vector_12" d="M14.0502 4.03711H7.14453V5.82277H14.781C14.6179 5.18923 14.37 4.58983 14.0502 4.03711Z" fill="#B94029"/>
<path id="Vector_13" d="M7.86341 0.466797C7.62075 0.466797 7.38097 0.479016 7.14453 0.502672V2.25245H12.5872C11.3281 1.14133 9.67466 0.466797 7.86341 0.466797Z" fill="#B94029"/>
<path id="Vector_14" d="M7.14259 14.752C11.0873 14.752 14.2852 11.5541 14.2852 7.60939C14.2852 3.66464 11.0873 0.466797 7.14259 0.466797C3.19785 0.466797 0 3.66464 0 7.60939C0 11.5541 3.19785 14.752 7.14259 14.752Z" fill="#F6E266"/>
<path id="Vector_15" d="M2.4043 12.9515C2.76539 13.2722 3.15892 13.5571 3.57983 13.8001L5.53911 0.648438C5.06183 0.758094 4.60298 0.915844 4.16755 1.11584L2.4043 12.9515Z" fill="#FBF4AF"/>
<path id="Vector_16" d="M7.14176 0.466797C7.01195 0.466797 6.88301 0.470484 6.75488 0.477328C10.5197 0.678297 13.5106 3.79445 13.5106 7.60939C13.5106 11.4243 10.5197 14.5405 6.75488 14.7415C6.88301 14.7483 7.01195 14.752 7.14176 14.752C11.0865 14.752 14.2844 11.5542 14.2844 7.60942C14.2844 3.66467 11.0865 0.466797 7.14176 0.466797Z" fill="#EAB14D"/>
<path id="Vector_17" d="M7.14401 13.3622C10.321 13.3622 12.8964 10.7868 12.8964 7.60982C12.8964 4.43286 10.321 1.85742 7.14401 1.85742C3.96704 1.85742 1.3916 4.43286 1.3916 7.60982C1.3916 10.7868 3.96704 13.3622 7.14401 13.3622Z" fill="#E7A52E"/>
<path id="Vector_18" d="M7.14061 1.85742C6.99673 1.85742 6.85411 1.86286 6.71289 1.87327C9.69008 2.09211 12.0376 4.57676 12.0376 7.60982C12.0376 10.6429 9.69011 13.1275 6.71289 13.3464C6.85414 13.3568 6.99673 13.3622 7.14061 13.3622C10.3176 13.3622 12.893 10.7868 12.893 7.60982C12.893 4.43286 10.3176 1.85742 7.14061 1.85742Z" fill="#E28424"/>
<path id="Vector_19" d="M2.66016 11.2146C2.98956 11.6236 3.37359 11.9867 3.8015 12.2925L5.31184 2.1543C4.80844 2.32314 4.33619 2.55977 3.90578 2.85323L2.66016 11.2146Z" fill="#EAB14D"/>
<path id="Vector_20" d="M7.32029 4.44093L8.4062 6.10921C8.43435 6.15249 8.47751 6.18384 8.52739 6.19724L10.4496 6.71446C10.5959 6.75384 10.6534 6.93068 10.5581 7.04852L9.30704 8.5968C9.2746 8.63696 9.2581 8.68768 9.26076 8.73924L9.36282 10.7272C9.3706 10.8785 9.22017 10.9878 9.07867 10.9336L7.21958 10.2223C7.17136 10.2038 7.11801 10.2038 7.06979 10.2223L5.2107 10.9336C5.0692 10.9878 4.91877 10.8785 4.92655 10.7272L5.02861 8.73924C5.03127 8.68768 5.01477 8.63696 4.98233 8.5968L3.73127 7.04852C3.63605 6.93068 3.69349 6.75384 3.8398 6.71446L5.76198 6.19724C5.81183 6.18384 5.85498 6.15246 5.88317 6.10921L6.96908 4.44093C7.0517 4.31396 7.23764 4.31396 7.32029 4.44093Z" fill="#C85929"/>
<path id="Vector_21" d="M10.4482 6.71447L8.52605 6.19725C8.4762 6.18381 8.43305 6.15247 8.40486 6.10922L8.31342 5.96875C8.30424 7.02872 8.1513 8.73537 7.40039 10.292L9.07733 10.9337C9.21883 10.9878 9.36927 10.8785 9.36149 10.7272L9.25942 8.73928C9.25677 8.68772 9.27327 8.637 9.30571 8.59684L10.5568 7.04856C10.652 6.93066 10.5945 6.75384 10.4482 6.71447Z" fill="#B94029"/>
</g>
</svg>
