<svg width="60" height="60" viewBox="0 0 60 60" fill="none" xmlns="http://www.w3.org/2000/svg">
<g id="Icon Symbols=Feather, Component=Icon Symbols">
<path id="Vector" d="M6.74648 49.4052C5.39481 48.4752 4.17815 42.6169 5.18648 42.0652C6.41648 41.3952 6.32982 43.4569 8.94482 46.0019C11.5598 48.5486 19.7281 47.5236 21.7915 48.2119C24.0631 48.9702 11.1498 52.4336 6.74648 49.4052Z" fill="#C1694F"/>
<path id="Vector_2" d="M8.94484 46.0063C6.66651 36.668 7.75818 31.533 9.05484 28.103C11.3332 22.068 27.8315 8.6163 39.6665 4.3963C42.7965 3.27964 52.6998 1.66797 58.3332 1.66797C59.3148 5.55464 56.3765 12.863 55.6332 14.198C53.9515 17.2146 49.6932 21.3196 41.2232 30.0013C40.8032 30.4313 32.6915 29.2346 32.2632 29.683C31.7915 30.1763 39.0032 32.3146 38.5215 32.8313C37.2915 34.148 36.0298 35.538 34.7415 37.0096C34.4548 37.3363 20.8898 35.4713 20.6015 35.8063C20.2148 36.2563 33.1032 38.9096 32.7115 39.373C31.6365 40.648 30.5465 41.9796 29.4465 43.368C26.5715 46.998 8.94484 46.0063 8.94484 46.0063Z" fill="#D99E82"/>
<path id="Vector_3" d="M31.9166 21.3101C34.5633 22.9201 40.8016 24.5484 45.7766 25.3468C48.9399 22.1184 51.2749 19.7168 52.9466 17.7984C49.1816 16.9818 43.3766 15.6318 40.4683 14.3201L39.1083 13.6484L30.9883 20.5984L31.9166 21.3101Z" fill="#C1694F"/>
<path id="Vector_4" d="M58.4794 2.52464C58.45 2.23609 58.401 1.94988 58.3328 1.66797C57.7028 1.66797 57.0128 1.6913 56.2911 1.72797C50.5611 2.02464 42.4461 3.40464 39.6661 4.3963C39.0911 4.6013 38.4961 4.8463 37.9011 5.09297C37.1044 5.42297 36.2944 5.7863 35.4694 6.18297C36.0628 8.6513 37.3461 11.423 38.4811 12.8713C35.6951 15.0381 33.0059 17.3264 30.4211 19.7296C20.9961 28.4763 13.7194 37.8496 8.74609 45.133C8.81276 45.423 8.87276 45.7063 8.94609 46.0063C8.94609 46.0063 9.31109 46.0263 9.92776 46.0496C12.3978 42.2363 19.4328 32.318 31.9178 21.3146C34.6825 18.8817 37.5344 16.5496 40.4678 14.323C43.3761 15.6346 49.1811 16.9846 52.9461 17.8013C53.4828 17.1863 53.9561 16.6146 54.3611 16.088C54.8878 15.4013 55.3094 14.7796 55.6328 14.198C56.3244 12.9546 58.9144 6.5413 58.4794 2.52464Z" fill="#662113"/>
<path id="Vector_5" d="M58.3339 1.66568C57.7189 1.66568 57.0822 1.66068 56.4372 1.65234C49.9122 4.77568 43.9222 8.64234 38.4839 12.869C37.3505 11.419 36.0655 8.64901 35.4722 6.18068C32.8979 7.43904 30.4023 8.85219 27.9989 10.4123C28.5139 13.5973 29.4189 17.7073 30.4239 19.7273C11.3789 37.4007 1.06387 57.674 0.922205 57.959C0.823191 58.1568 0.806811 58.3859 0.876668 58.5957C0.946526 58.8056 1.0969 58.9792 1.29471 59.0782C1.49251 59.1772 1.72155 59.1936 1.93144 59.1237C2.14132 59.0539 2.31486 58.9035 2.41387 58.7057C2.61221 58.309 22.6539 18.9007 58.5122 2.50568C58.4622 2.22376 58.4027 1.94361 58.3339 1.66568Z" fill="#C1694F"/>
</g>
</svg>
