<svg width="24" height="24" viewBox="0 0 24 24" fill="none" xmlns="http://www.w3.org/2000/svg">
    <g id="Group">
        <path id="Exclude" fill-rule="evenodd" clip-rule="evenodd"
            d="M12.0007 2.08203C6.53248 2.08203 2.08398 6.53053 2.08398 11.9987C2.08398 17.4669 6.53248 21.9154 12.0007 21.9154C17.4688 21.9154 21.9173 17.4669 21.9173 11.9987C21.9173 6.53053 17.4688 2.08203 12.0007 2.08203M12.0007 23.6654C5.56765 23.6654 0.333984 18.4317 0.333984 11.9987C0.333984 5.5657 5.56765 0.332031 12.0007 0.332031C18.4337 0.332031 23.6673 5.5657 23.6673 11.9987C23.6673 18.4317 18.4337 23.6654 12.0007 23.6654"
            fill="#212121" />
        <path id="Vector" fill-rule="evenodd" clip-rule="evenodd"
            d="M16.6061 13.181C15.9609 13.181 15.4336 12.6595 15.4336 12.0143C15.4336 11.3692 15.9504 10.8477 16.5944 10.8477H16.6061C17.2513 10.8477 17.7728 11.3692 17.7728 12.0143C17.7728 12.6595 17.2513 13.181 16.6061 13.181"
            fill="#212121" />
        <path id="Vector_2" fill-rule="evenodd" clip-rule="evenodd"
            d="M11.9291 13.181C11.284 13.181 10.7578 12.6595 10.7578 12.0143C10.7578 11.3692 11.2735 10.8477 11.9186 10.8477H11.9291C12.5743 10.8477 13.0958 11.3692 13.0958 12.0143C13.0958 12.6595 12.5743 13.181 11.9291 13.181"
            fill="#212121" />
        <path id="Vector_3" fill-rule="evenodd" clip-rule="evenodd"
            d="M7.25258 13.181C6.60741 13.181 6.08008 12.6595 6.08008 12.0143C6.08008 11.3692 6.59691 10.8477 7.24208 10.8477H7.25258C7.89774 10.8477 8.41924 11.3692 8.41924 12.0143C8.41924 12.6595 7.89774 13.181 7.25258 13.181"
            fill="#212121" />
    </g>
</svg>
