<svg width="23" height="26" viewBox="0 0 23 26" fill="none" xmlns="http://www.w3.org/2000/svg">
    <g id="Group">
        <g id="Mask Group">
            <mask id="mask0_2275_32974" style="mask-type:luminance" maskUnits="userSpaceOnUse" x="0"
                y="0" width="23" height="21">
                <path id="Vector" fill-rule="evenodd" clip-rule="evenodd"
                    d="M0.5 0.167969H22.0797V20.4073H0.5V0.167969Z" fill="white" />
            </mask>
            <g mask="url(#mask0_2275_32974)">
                <path id="Exclude" fill-rule="evenodd" clip-rule="evenodd"
                    d="M11.2882 1.91797C7.21068 1.91797 4.36868 5.1123 4.36868 7.9788C4.36868 10.4043 3.69552 11.5255 3.10052 12.5148C2.62335 13.3093 2.24652 13.937 2.24652 15.3008C2.44135 17.5011 3.89385 18.6573 11.2882 18.6573C18.6417 18.6573 20.1397 17.4498 20.3334 15.225C20.3299 13.937 19.953 13.3093 19.4758 12.5148C18.8808 11.5255 18.2077 10.4043 18.2077 7.9788C18.2077 5.1123 15.3657 1.91797 11.2882 1.91797M11.2882 20.4073C5.83285 20.4073 0.902516 20.0223 0.500016 15.3755C0.496516 13.4528 1.08335 12.4751 1.60135 11.6141C2.12518 10.7415 2.61868 9.91897 2.61868 7.9788C2.61868 4.20697 6.10235 0.167969 11.2882 0.167969C16.474 0.167969 19.9577 4.20697 19.9577 7.9788C19.9577 9.91897 20.4512 10.7415 20.975 11.6141C21.493 12.4751 22.0799 13.4528 22.0799 15.3008C21.6727 20.0223 16.7435 20.4073 11.2882 20.4073"
                    fill="#212121" />
            </g>
        </g>
        <path id="Vector_2" fill-rule="evenodd" clip-rule="evenodd"
            d="M11.2312 25.2517H11.2289C9.92103 25.2505 8.68319 24.6742 7.74403 23.6277C7.42086 23.2695 7.45003 22.7153 7.80936 22.3933C8.16869 22.069 8.72169 22.0982 9.04486 22.4587C9.64919 23.1318 10.425 23.5017 11.23 23.5017H11.2312C12.0397 23.5017 12.819 23.1318 13.4245 22.4575C13.7489 22.0993 14.3019 22.0702 14.66 22.3933C15.0194 22.7165 15.0485 23.2707 14.7254 23.6288C13.7827 24.6753 12.5425 25.2517 11.2312 25.2517"
            fill="#212121" />
    </g>
</svg>
