<svg width="28" height="28" viewBox="0 0 28 28" fill="none" xmlns="http://www.w3.org/2000/svg">
    <g id="Type=Logo Default, Component=Logo">
        <path id="Vector"
            d="M21.0502 23.8162C20.9488 23.9252 20.8319 24.025 20.6989 24.1132C18.9285 25.2874 16.868 25.984 14.7193 26.1123C11.7576 26.2891 8.83374 25.3739 6.50106 23.5398C4.16837 21.7057 2.58863 19.0799 2.06074 16.1593C1.53285 13.2386 2.09343 10.2257 3.6364 7.69066C5.17938 5.15558 7.59772 3.27416 10.4339 2.40239C13.27 1.53062 16.3272 1.72897 19.027 2.9599C21.7268 4.19084 23.8819 6.36898 25.0846 9.08219C25.9571 11.0504 26.2845 13.2012 26.0547 15.3134C25.9097 16.6455 24.5184 17.3536 23.2417 16.9467C21.9653 16.54 21.3051 15.1594 21.2719 13.8202C21.2484 12.8724 21.0399 11.9305 20.6494 11.0495C19.9278 9.42159 18.6347 8.11471 17.0148 7.37615C15.3949 6.63759 13.5606 6.51858 11.8589 7.04164C10.1572 7.5647 8.70624 8.69356 7.78045 10.2146C6.85467 11.7357 6.51832 13.5434 6.83506 15.2958C7.15179 17.0482 8.09964 18.6236 9.49925 19.7241C10.8989 20.8246 12.6531 21.3737 14.4302 21.2676C15.3821 21.2107 16.3051 20.968 17.1506 20.5613L9.83809 13.2463C11.7328 11.351 14.8048 11.351 16.6995 13.2463L26.1339 22.6839C24.7592 24.0589 22.765 24.4364 21.0502 23.8162Z"
            fill="url(#paint0_linear_2275_32956)" />
    </g>
    <defs>
        <linearGradient id="paint0_linear_2275_32956" x1="26.1339" y1="26.1339" x2="-2.7413"
            y2="17.7618" gradientUnits="userSpaceOnUse">
            <stop stop-color="#C74225" />
            <stop offset="1" stop-color="#FF725E" />
        </linearGradient>
    </defs>
</svg>
