<svg width="21" height="21" viewBox="0 0 21 21" fill="none" xmlns="http://www.w3.org/2000/svg">
<g id="Group 1000001948">
<path id="Vector" d="M0.9 10.75C0.9 16.1964 5.3036 20.6 10.75 20.6C16.1964 20.6 20.6 16.1964 20.6 10.75C20.6 5.3036 16.1964 0.9 10.75 0.9C5.3036 0.9 0.9 5.3036 0.9 10.75ZM2.24706 10.75C2.24706 6.04493 6.04493 2.24706 10.75 2.24706C15.4551 2.24706 19.2529 6.04493 19.2529 10.75C19.2529 15.4551 15.4551 19.2529 10.75 19.2529C6.04493 19.2529 2.24706 15.4551 2.24706 10.75Z" fill="#616161" stroke="#616161" stroke-width="0.2"/>
<path id="Vector_2" d="M5.39746 9.73438H5.14746V9.98438V11.1314V11.3814H5.39746H15.721H15.971V11.1314V9.98438V9.73438H15.721H5.39746Z" fill="#616161" stroke="#616161" stroke-width="0.5"/>
</g>
</svg>
