<svg width="20" height="18" viewBox="0 0 20 18" fill="none" xmlns="http://www.w3.org/2000/svg">
    <path
        d="M14.8398 2.79688C15.2195 2.79688 15.5333 3.07903 15.583 3.4451L15.5898 3.54688V17.1647C15.5898 17.5789 15.2541 17.9147 14.8398 17.9147C14.4601 17.9147 14.1464 17.6325 14.0967 17.2664L14.0898 17.1647V3.54688C14.0898 3.13266 14.4256 2.79688 14.8398 2.79688Z"
        fill="#C74225" />
    <path
        d="M18.3857 12.5373C18.6779 12.2437 19.1528 12.2426 19.4464 12.5349C19.7133 12.8005 19.7384 13.2171 19.5213 13.5112L19.4488 13.5955L15.3711 17.6922C15.1045 17.9599 14.6863 17.9843 14.3922 17.7652L14.3079 17.6922L10.2302 13.5955C9.93795 13.3019 9.93905 12.8271 10.2326 12.5349C10.4995 12.2692 10.9162 12.246 11.2093 12.4645L11.2933 12.5373L14.8391 16.0993L18.3857 12.5373Z"
        fill="#C74225" />
    <path
        d="M4.91211 0.0820312C5.29181 0.0820312 5.6056 0.364185 5.65526 0.730261L5.66211 0.832031V14.4498C5.66211 14.864 5.32632 15.1998 4.91211 15.1998C4.53241 15.1998 4.21862 14.9177 4.16896 14.5516L4.16211 14.4498V0.832031C4.16211 0.417818 4.4979 0.0820312 4.91211 0.0820312Z"
        fill="#C74225" />
    <path
        d="M4.38021 0.302928C4.64673 0.0351744 5.06498 0.0108331 5.35908 0.229904L5.44332 0.302928L9.52109 4.39959C9.81331 4.69316 9.81221 5.16804 9.51864 5.46025C9.25176 5.7259 8.83504 5.74915 8.54194 5.53061L8.45799 5.4578L4.91154 1.8947L1.36554 5.4578C1.09989 5.72468 0.683281 5.74985 0.389167 5.53268L0.304881 5.46025C0.038 5.1946 0.0128313 4.77799 0.230007 4.48388L0.30243 4.39959L4.38021 0.302928Z"
        fill="#C74225" />
</svg>
