<svg width="72" height="72" viewBox="0 0 72 72" fill="none" xmlns="http://www.w3.org/2000/svg">
    <path id="Vector"
        d="M36.0002 11.6768C22.5886 11.6768 11.6772 22.588 11.6772 35.9998C11.6772 49.4116 22.5884 60.3228 36.0002 60.3228C49.412 60.3228 60.3232 49.4116 60.3232 35.9998C60.3232 22.588 49.4119 11.6768 36.0002 11.6768ZM55.462 36.9693C55.2422 41.4286 53.3477 45.6579 50.1975 48.8218C50.1854 48.834 50.1731 48.8461 50.161 48.8584C44.6786 54.3407 35.7585 54.3406 30.276 48.8584C26.0788 44.6611 26.0788 37.8317 30.276 33.6345C33.4454 30.4653 38.6019 30.4655 41.7711 33.6345C44.1178 35.9812 44.1178 39.7995 41.7711 42.1463C40.2202 43.697 37.7762 43.8238 36.0794 42.5261C35.4272 42.0272 34.806 40.9762 34.7748 40.1556C34.7436 39.3398 35.0374 38.5665 35.5955 37.9815C36.4688 37.0663 36.6072 35.6437 35.7954 34.6734C34.8709 33.5677 33.2215 33.5132 32.2251 34.5095C30.7483 35.9862 29.935 37.9497 29.935 40.0382C29.935 42.1266 30.7483 44.09 32.2251 45.5668C35.8003 49.1417 41.6169 49.1415 45.1916 45.5668C49.4244 41.334 49.4243 34.4467 45.1916 30.2139C40.1364 25.1589 31.9107 25.1587 26.8556 30.2139C20.7723 36.2973 20.7723 46.1955 26.8556 52.2787C27.5851 53.008 28.3604 53.6641 29.1715 54.2491C21.6042 51.4081 16.2573 43.9894 16.5245 35.3828C16.8458 25.0281 25.3477 16.6697 35.7063 16.5162C46.5847 16.355 55.486 25.1574 55.486 35.9996C55.4858 36.3248 55.4779 36.6481 55.462 36.9693Z"
        fill="white" />
    <path id="Vector_2"
        d="M35.9997 10.4039C37.3357 10.4039 38.4184 9.321 38.4184 7.98523V2.41869C38.4184 1.08293 37.3357 0 35.9997 0C34.664 0 33.5811 1.08293 33.5811 2.41869V7.98523C33.5811 9.32116 34.664 10.4039 35.9997 10.4039Z"
        fill="white" />
    <path id="Vector_3"
        d="M35.9997 61.5957C34.664 61.5957 33.5811 62.6786 33.5811 64.0144V69.5809C33.5811 70.9167 34.664 71.9996 35.9997 71.9996C37.3357 71.9996 38.4184 70.9167 38.4184 69.5809V64.0144C38.4183 62.6786 37.3357 61.5957 35.9997 61.5957Z"
        fill="white" />
    <path id="Vector_4"
        d="M19.8982 12.9482C20.3462 13.7243 21.1592 14.1579 21.9951 14.1579C22.4053 14.1579 22.8213 14.0534 23.2022 13.8335C24.3589 13.1656 24.7553 11.6863 24.0874 10.5296L21.3041 5.70878C20.6363 4.552 19.157 4.15549 18.0002 4.82353C16.8434 5.49142 16.4471 6.97069 17.115 8.12747L19.8982 12.9482Z"
        fill="white" />
    <path id="Vector_5"
        d="M52.1021 59.0525C51.4341 57.8955 49.9548 57.4994 48.7982 58.1672C47.6412 58.8351 47.2449 60.3144 47.9129 61.4712L50.6962 66.292C51.1441 67.068 51.9571 67.5016 52.793 67.5016C53.2034 67.5016 53.6193 67.3971 54.0001 67.1772C55.1569 66.5093 55.5534 65.03 54.8854 63.8733L52.1021 59.0525Z"
        fill="white" />
    <path id="Vector_6"
        d="M5.70832 21.3038L10.5291 24.0871C10.91 24.307 11.3258 24.4115 11.7362 24.4115C12.5721 24.4115 13.3852 23.9778 13.833 23.2019C14.5009 22.0451 14.1046 20.5658 12.9478 19.8979L8.12701 17.1147C6.97007 16.4465 5.4908 16.843 4.82308 17.9999C4.15504 19.1567 4.55138 20.636 5.70832 21.3038Z"
        fill="white" />
    <path id="Vector_7"
        d="M66.2915 50.6959L61.4708 47.9126C60.3138 47.2442 58.8347 47.6409 58.1668 48.7978C57.4988 49.9546 57.8951 51.4339 59.0521 52.1018L63.8728 54.885C64.2537 55.105 64.6696 55.2095 65.0799 55.2095C65.9158 55.2095 66.7288 54.7757 67.1768 53.9998C67.8448 52.843 67.4485 51.3637 66.2915 50.6959Z"
        fill="white" />
    <path id="Vector_8"
        d="M10.4039 35.9997C10.4039 34.664 9.32098 33.5811 7.98522 33.5811H2.41869C1.08293 33.5811 0 34.664 0 35.9997C0 37.3355 1.08293 38.4184 2.41869 38.4184H7.98522C9.32098 38.4184 10.4039 37.3355 10.4039 35.9997Z"
        fill="white" />
    <path id="Vector_9"
        d="M69.5814 33.5811H64.0149C62.6791 33.5811 61.5962 34.664 61.5962 35.9997C61.5962 37.3355 62.6791 38.4184 64.0149 38.4184H69.5814C70.9172 38.4184 72.0001 37.3355 72.0001 35.9997C72.0001 34.664 70.9172 33.5811 69.5814 33.5811Z"
        fill="white" />
    <path id="Vector_10"
        d="M10.5295 47.9124L5.7087 50.6957C4.55192 51.3636 4.15558 52.8429 4.82346 53.9997C5.2714 54.7757 6.08441 55.2093 6.92031 55.2093C7.33052 55.2093 7.74653 55.1048 8.12739 54.8849L12.9482 52.1016C14.1049 51.4337 14.5013 49.9545 13.8334 48.7977C13.1655 47.6407 11.6864 47.2444 10.5295 47.9124Z"
        fill="white" />
    <path id="Vector_11"
        d="M60.2637 24.4123C60.674 24.4123 61.0899 24.3078 61.4708 24.0879L66.2915 21.3046C67.4485 20.6367 67.8448 19.1574 67.1768 18.0007C66.5087 16.8437 65.0296 16.4477 63.8728 17.1154L59.0521 19.8987C57.8951 20.5666 57.4988 22.0458 58.1668 23.2026C58.6148 23.9785 59.4278 24.4123 60.2637 24.4123Z"
        fill="white" />
    <path id="Vector_12"
        d="M23.2022 58.1664C22.0452 57.4982 20.566 57.8947 19.8982 59.0517L17.115 63.8724C16.4471 65.0292 16.8434 66.5085 18.0002 67.1764C18.3811 67.3963 18.7969 67.5008 19.2073 67.5008C20.0432 67.5008 20.8562 67.067 21.3041 66.2911L24.0874 61.4703C24.7553 60.3136 24.3589 58.8343 23.2022 58.1664Z"
        fill="white" />
    <path id="Vector_13"
        d="M48.7977 13.8336C49.1786 14.0535 49.5944 14.158 50.0048 14.158C50.8407 14.158 51.6537 13.7243 52.1016 12.9484L54.8849 8.12758C55.5529 6.97063 55.1564 5.49136 53.9996 4.82364C52.8429 4.15544 51.3634 4.55194 50.6957 5.70888L47.9123 10.5295C47.2444 11.6864 47.6409 13.1657 48.7977 13.8336Z"
        fill="white" />
</svg>
