<svg width="34" height="35" viewBox="0 0 34 35" fill="none" xmlns="http://www.w3.org/2000/svg">
<g clip-path="url(#clip0_352_17143)">
<path d="M22.7344 16.4419C22.7344 21.1086 16.7344 25.1086 16.7344 25.1086C16.7344 25.1086 10.7344 21.1086 10.7344 16.4419C10.7344 14.8506 11.3665 13.3245 12.4917 12.1993C13.617 11.074 15.1431 10.4419 16.7344 10.4419C18.3257 10.4419 19.8518 11.074 20.977 12.1993C22.1022 13.3245 22.7344 14.8506 22.7344 16.4419Z" stroke="#C74225" stroke-width="1.5" stroke-linecap="round" stroke-linejoin="round"/>
<path d="M16.7344 18.4419C17.8389 18.4419 18.7344 17.5465 18.7344 16.4419C18.7344 15.3373 17.8389 14.4419 16.7344 14.4419C15.6298 14.4419 14.7344 15.3373 14.7344 16.4419C14.7344 17.5465 15.6298 18.4419 16.7344 18.4419Z" stroke="#C74225" stroke-width="1.5" stroke-linecap="round" stroke-linejoin="round"/>
</g>
<rect x="0.734375" y="1.27539" width="32" height="33" rx="16" stroke="#C74225"/>
<defs>
<clipPath id="clip0_352_17143">
<rect width="16" height="16" fill="white" transform="translate(8.73438 9.77539)"/>
</clipPath>
</defs>
</svg>
