<svg width="32" height="31" viewBox="0 0 32 31" fill="none" xmlns="http://www.w3.org/2000/svg">
<g filter="url(#filter0_d_0_1112)">
<path d="M26.9902 19.0119V6.17037C26.9892 5.99501 26.9417 5.8221 26.8512 5.66446C26.7607 5.50682 26.6295 5.3685 26.4673 5.25979C26.3074 5.15007 26.1206 5.07215 25.9205 5.03175C25.7205 4.99134 25.5123 4.98948 25.3113 5.0263L12.9263 7.36113C12.6206 7.41962 12.3475 7.5649 12.1523 7.77294C11.9572 7.98098 11.8515 8.2393 11.8529 8.50519V18.2414C10.9135 17.8652 9.8556 17.7575 8.83792 17.9345C7.82024 18.1115 6.89766 18.5637 6.20859 19.2233C5.51951 19.8828 5.10109 20.7141 5.0161 21.5924C4.93111 22.4708 5.18414 23.3488 5.73721 24.0948C6.29029 24.8409 7.1136 25.4146 8.08362 25.7301C9.05365 26.0455 10.1181 26.0856 11.1173 25.8444C12.1165 25.6032 12.9965 25.0936 13.6254 24.3921C14.2542 23.6906 14.598 22.8351 14.6052 21.9538C14.6194 21.7516 14.6194 21.5489 14.6052 21.3467V9.43912L24.238 7.62963V15.9066C23.298 15.5301 22.2395 15.4225 21.2213 15.5999C20.2031 15.7774 19.2802 16.2302 18.5913 16.8905C17.9024 17.5509 17.4846 18.383 17.4006 19.2619C17.3167 20.1408 17.5712 21.0191 18.1258 21.7649C18.6804 22.5107 19.5053 23.0836 20.4766 23.3978C21.4478 23.712 22.513 23.7503 23.5121 23.5071C24.5112 23.264 25.3904 22.7523 26.0176 22.0491C26.6447 21.3459 26.986 20.4891 26.9902 19.6073C27.0033 19.409 27.0033 19.2102 26.9902 19.0119Z" fill="#EFECEA"/>
</g>
<defs>
<filter id="filter0_d_0_1112" x="0" y="0" width="32" height="31" filterUnits="userSpaceOnUse" color-interpolation-filters="sRGB">
<feFlood flood-opacity="0" result="BackgroundImageFix"/>
<feColorMatrix in="SourceAlpha" type="matrix" values="0 0 0 0 0 0 0 0 0 0 0 0 0 0 0 0 0 0 127 0" result="hardAlpha"/>
<feOffset/>
<feGaussianBlur stdDeviation="2.5"/>
<feComposite in2="hardAlpha" operator="out"/>
<feColorMatrix type="matrix" values="0 0 0 0 0 0 0 0 0 0 0 0 0 0 0 0 0 0 0.25 0"/>
<feBlend mode="normal" in2="BackgroundImageFix" result="effect1_dropShadow_0_1112"/>
<feBlend mode="normal" in="SourceGraphic" in2="effect1_dropShadow_0_1112" result="shape"/>
</filter>
</defs>
</svg>
