<svg width="32" height="32" viewBox="0 0 32 32" fill="none" xmlns="http://www.w3.org/2000/svg">
<path d="M30.6667 5.33334V13.3333M30.6667 13.3333H22.6667M30.6667 13.3333L24.4933 7.52001C22.6541 5.67966 20.2666 4.48692 17.6906 4.12153C15.1146 3.75614 12.4896 4.23789 10.2111 5.49419C7.93271 6.75049 6.12432 8.71328 5.05848 11.0868C3.99263 13.4603 3.72707 16.1159 4.30182 18.6534C4.87656 21.191 6.26047 23.473 8.245 25.1556C10.2295 26.8382 12.7072 27.8302 15.3046 27.9821C17.9019 28.1341 20.4783 27.4377 22.6455 25.998C24.8127 24.5583 26.4533 22.4532 27.32 20" stroke="white" stroke-width="1.5" stroke-linecap="round" stroke-linejoin="round"/>
<path d="M13.309 19V13.546L12.292 13.771V13.249L13.561 12.7H14.074V19H13.309ZM17.8608 19.108C17.3028 19.108 16.8198 18.973 16.4118 18.703C16.0098 18.427 15.7008 18.046 15.4848 17.56C15.2688 17.068 15.1608 16.498 15.1608 15.85C15.1608 15.202 15.2688 14.635 15.4848 14.149C15.7008 13.657 16.0098 13.276 16.4118 13.006C16.8198 12.73 17.3028 12.592 17.8608 12.592C18.4188 12.592 18.8988 12.73 19.3008 13.006C19.7028 13.276 20.0118 13.657 20.2278 14.149C20.4438 14.635 20.5518 15.202 20.5518 15.85C20.5518 16.498 20.4438 17.068 20.2278 17.56C20.0118 18.046 19.7028 18.427 19.3008 18.703C18.8988 18.973 18.4188 19.108 17.8608 19.108ZM17.8608 18.442C18.2268 18.442 18.5538 18.34 18.8418 18.136C19.1358 17.926 19.3638 17.629 19.5258 17.245C19.6938 16.855 19.7778 16.39 19.7778 15.85C19.7778 15.31 19.6938 14.848 19.5258 14.464C19.3638 14.08 19.1358 13.786 18.8418 13.582C18.5538 13.372 18.2268 13.267 17.8608 13.267C17.4888 13.267 17.1588 13.372 16.8708 13.582C16.5828 13.786 16.3548 14.08 16.1868 14.464C16.0188 14.848 15.9348 15.31 15.9348 15.85C15.9348 16.39 16.0188 16.855 16.1868 17.245C16.3548 17.629 16.5828 17.926 16.8708 18.136C17.1588 18.34 17.4888 18.442 17.8608 18.442Z" fill="white"/>
</svg>
