<svg width="17" height="16" viewBox="0 0 17 16" fill="none" xmlns="http://www.w3.org/2000/svg">
<path d="M8.47803 14.643C9.94623 14.643 11.3543 14.0597 12.3925 13.0216C13.4306 11.9834 14.0139 10.5753 14.0139 9.10713C14.0139 7.63893 13.4306 6.23087 12.3925 5.19269C11.3543 4.15452 9.94623 3.57128 8.47803 3.57128C7.00983 3.57128 5.60176 4.15452 4.56359 5.19269C3.52542 6.23087 2.94218 7.63893 2.94218 9.10713C2.94218 10.5753 3.52542 11.9834 4.56359 13.0216C5.60176 14.0597 7.00983 14.643 8.47803 14.643V14.643ZM8.47803 15.7502C6.71619 15.7502 5.02651 15.0503 3.7807 13.8045C2.53489 12.5586 1.83501 10.869 1.83501 9.10713C1.83501 7.34529 2.53489 5.65561 3.7807 4.40981C5.02651 3.164 6.71619 2.46411 8.47803 2.46411C10.2399 2.46411 11.9295 3.164 13.1754 4.40981C14.4212 5.65561 15.121 7.34529 15.121 9.10713C15.121 10.869 14.4212 12.5586 13.1754 13.8045C11.9295 15.0503 10.2399 15.7502 8.47803 15.7502Z" fill="#C74225"/>
<path d="M8.47797 4.67847C8.62479 4.67847 8.7656 4.73679 8.86941 4.84061C8.97323 4.94443 9.03155 5.08523 9.03155 5.23205L9.0227 9.10715C9.0227 9.25397 8.96437 9.39477 8.86056 9.49859C8.75674 9.60241 8.61593 9.66073 8.46911 9.66073C8.32229 9.66073 8.18149 9.60241 8.07767 9.49859C7.97385 9.39477 7.91553 9.25397 7.91553 9.10715L7.92438 5.23205C7.92438 5.08523 7.98271 4.94443 8.08653 4.84061C8.19034 4.73679 8.33115 4.67847 8.47797 4.67847V4.67847Z" fill="#C74225"/>
<path d="M7.37085 9.10712C7.37085 9.40076 7.4875 9.68237 7.69514 9.89C7.90277 10.0976 8.18438 10.2143 8.47802 10.2143C8.77166 10.2143 9.05328 10.0976 9.26091 9.89C9.46855 9.68237 9.58519 9.40076 9.58519 9.10712C9.58519 8.81348 9.46855 8.53186 9.26091 8.32423C9.05328 8.11659 8.77166 7.99995 8.47802 7.99995C8.18438 7.99995 7.90277 8.11659 7.69514 8.32423C7.4875 8.53186 7.37085 8.81348 7.37085 9.10712ZM9.03161 1.35693V3.57127H7.92444V1.35693H6.26368C6.11686 1.35693 5.97606 1.2986 5.87224 1.19478C5.76842 1.09097 5.7101 0.950161 5.7101 0.803341C5.7101 0.656521 5.76842 0.515714 5.87224 0.411897C5.97606 0.30808 6.11686 0.249756 6.26368 0.249756H10.6924C10.8392 0.249756 10.98 0.30808 11.0838 0.411897C11.1876 0.515714 11.2459 0.656521 11.2459 0.803341C11.2459 0.950161 11.1876 1.09097 11.0838 1.19478C10.98 1.2986 10.8392 1.35693 10.6924 1.35693H9.03161Z" fill="#C74225"/>
</svg>
