<svg width="80" height="80" viewBox="0 0 80 80" fill="none" xmlns="http://www.w3.org/2000/svg">
<g clip-path="url(#clip0_249_14592)">
<path d="M50.7894 18.5713C51.2235 18.7164 51.6799 18.8057 52.0806 18.9954C53.6501 19.7543 54.5295 21.0266 54.6297 22.7677C54.6965 24.0177 54.5111 27.25 54.5 28.5C54.5 29.1473 54.2957 27.4887 53.6056 27.4999C51.7689 27.511 56.8671 27.4999 55.0304 27.4999C54.8634 27.4999 54.6965 27.4999 54.4738 27.4999C54.4738 27.7008 54.4738 27.8793 54.4738 28.0467C54.4738 38.7833 54.4738 49.52 54.485 60.2566C54.485 60.8146 54.318 61.2052 53.806 61.4173C53.6724 61.4173 53.5277 61.4173 53.3941 61.4173C52.0472 60.8704 50.7115 60.3235 49.3646 59.799C49.2533 59.7543 49.0863 59.7432 48.975 59.7878C47.617 60.3235 46.2589 60.8704 44.9009 61.4173C44.734 61.4173 44.567 61.4173 44.4 61.4173C44.3889 61.395 44.3778 61.3615 44.3555 61.3503C43.042 60.8146 41.7396 60.29 40.4262 59.7655C40.3371 59.732 40.2035 59.732 40.1033 59.7655C38.7565 60.3124 37.4096 60.8592 36.0627 61.4173C35.8957 61.4173 35.7287 61.4173 35.5618 61.4173C34.2038 60.8592 32.8569 60.3124 31.4989 59.7655C31.3987 59.7208 31.254 59.7543 31.1427 59.799C29.8069 60.3347 28.4711 60.8816 27.1465 61.4173C26.9796 61.4173 26.8126 61.4173 26.6456 61.4173C26.1336 61.2275 26.0779 60.7923 26.0779 60.3347C26.0334 59.1517 26 57.9463 26 56.7521C26 47.9909 26.0111 39.2409 26.0223 30.4798C26.0223 27.924 26.0111 25.3793 26.0445 22.8235C26.0557 21.607 26.5788 20.5914 27.4471 19.7543C28.1372 19.107 28.9832 18.7833 29.8848 18.5713C39.1572 18.5713 41.5059 18.5713 50.7894 18.5713ZM52.6928 59.2075C52.6928 58.9619 52.6928 58.8168 52.6928 58.6606C52.6928 56.3503 52.6928 54.0289 52.6817 51.7186C52.6706 43.415 52.6594 35.1226 52.6594 26.8191C52.6594 25.4686 52.7374 24.1182 52.7819 22.7677C52.8041 21.9307 52.3321 21.2589 53 20.5C52.5325 20.5 50.7115 20.3682 50.3887 20.3682C43.1311 20.3682 37.9773 20.357 30.7197 20.357C28.8941 20.357 27.7921 21.4619 27.7921 23.3034C27.7921 35.1003 27.7921 46.9083 27.7921 58.7052C27.7921 58.8503 27.7921 59.0066 27.7921 59.1851C27.9257 59.1405 28.0148 59.1293 28.1038 59.0847C29.0054 58.7275 29.9071 58.3704 30.8087 57.9909C31.1872 57.8347 31.5434 57.8347 31.933 58.0021C33.0572 58.4708 34.2038 58.9061 35.328 59.386C35.662 59.52 35.9402 59.5423 36.2742 59.3972C37.3762 58.9284 38.4893 58.5155 39.5913 58.0467C40.0477 57.8458 40.4595 57.857 40.9048 58.0467C42.0513 58.5155 43.1978 58.9619 44.3332 59.4418C44.6004 59.5534 44.823 59.5423 45.079 59.4418C46.0141 59.0512 46.9936 58.7499 47.8841 58.2923C48.7746 57.8347 49.5761 57.8905 50.4443 58.3146C51.1456 58.6383 51.8914 58.8838 52.6928 59.2075ZM52.8709 25.6918C52.8709 24.7543 52.8932 23.8391 52.8709 22.9463C52.8375 21.5847 51.7801 20.5021 50.3887 20.3682C49.1197 20.2454 53.6781 19.183 53.5 20.5C53.3664 21.5491 54.5406 24.6092 54.5406 25.6918C56.2548 25.6918 51.0677 25.6918 52.8709 25.6918Z" fill="#2CA031"/>
<path d="M40.2116 48.9395C37.6291 48.9395 35.0466 48.9395 32.4642 48.9395C31.7852 48.9395 31.3956 48.6381 31.3622 48.1136C31.3288 47.6448 31.5959 47.2653 32.0634 47.1761C32.2193 47.1426 32.3974 47.1426 32.5644 47.1426C37.6736 47.1426 42.7829 47.1426 47.881 47.1426C47.9478 47.1426 48.0146 47.1426 48.0925 47.1426C48.727 47.1537 49.1277 47.5109 49.1166 48.0466C49.1055 48.5823 48.7159 48.9395 48.0702 48.9395C45.4544 48.9395 42.8274 48.9395 40.2116 48.9395Z" fill="#2CA031"/>
<path d="M40.2288 44.4533C37.6241 44.4533 35.0082 44.4533 32.4035 44.4533C31.7579 44.4533 31.3905 44.1519 31.3683 43.6162C31.346 43.1363 31.6688 42.7457 32.1363 42.6899C32.2365 42.6787 32.3256 42.6787 32.4257 42.6787C37.6241 42.6787 42.8335 42.6787 48.0318 42.6787C48.2099 42.6787 48.3991 42.6899 48.555 42.7568C48.9334 42.8908 49.1561 43.2926 49.1115 43.6832C49.0559 44.085 48.7442 44.3975 48.3324 44.4421C48.1765 44.4533 48.0318 44.4533 47.876 44.4533C45.338 44.4533 42.789 44.4533 40.2288 44.4533Z" fill="#2CA031"/>
<path d="M40.2463 51.618C42.7843 51.618 45.3222 51.618 47.8601 51.618C48.016 51.618 48.1607 51.618 48.3165 51.6292C48.7618 51.6738 49.0846 52.0198 49.118 52.4551C49.1402 52.9015 48.8286 53.3033 48.3833 53.3814C48.2609 53.4037 48.1384 53.3926 48.0049 53.3926C42.8177 53.3926 37.6305 53.3926 32.4322 53.3926C31.7309 53.3926 31.3302 53.0466 31.3524 52.4662C31.3636 52.0198 31.6753 51.6738 32.1205 51.6292C32.2763 51.6069 32.421 51.618 32.5769 51.618C35.1482 51.618 37.6973 51.618 40.2463 51.618Z" fill="#2CA031"/>
<path d="M34.6094 33.4949L38.0533 36.1735L44.367 28.3291" stroke="#2CA031" stroke-width="2" stroke-linecap="round"/>
</g>
<circle cx="40" cy="40" r="39" stroke="#2CA031" stroke-width="2"/>
<defs>
<clipPath id="clip0_249_14592">
<rect width="29" height="42.8571" fill="white" transform="translate(26 18.5713)"/>
</clipPath>
</defs>
</svg>
