<svg width="33" height="32" viewBox="0 0 33 32" fill="none" xmlns="http://www.w3.org/2000/svg">
<rect x="0.633301" y="0.5" width="30.903" height="31" rx="9.5" stroke="#A8A8A8"/>
<path d="M10.0848 11.9997H11.4182M11.4182 11.9997H22.0848M11.4182 11.9997V21.333C11.4182 21.6866 11.5586 22.0258 11.8087 22.2758C12.0587 22.5259 12.3979 22.6663 12.7515 22.6663H19.4182C19.7718 22.6663 20.1109 22.5259 20.361 22.2758C20.611 22.0258 20.7515 21.6866 20.7515 21.333V11.9997H11.4182ZM13.4182 11.9997V10.6663C13.4182 10.3127 13.5586 9.97358 13.8087 9.72353C14.0587 9.47348 14.3979 9.33301 14.7515 9.33301H17.4182C17.7718 9.33301 18.1109 9.47348 18.361 9.72353C18.611 9.97358 18.7515 10.3127 18.7515 10.6663V11.9997M14.7515 15.333V19.333M17.4182 15.333V19.333" stroke="#C74225" stroke-width="1.5" stroke-linecap="round" stroke-linejoin="round"/>
</svg>
