<svg width="33" height="33" viewBox="0 0 33 33" fill="none" xmlns="http://www.w3.org/2000/svg">
<path d="M10.625 12.4484H11.9583M11.9583 12.4484H22.625M11.9583 12.4484V21.7817C11.9583 22.1354 12.0988 22.4745 12.3489 22.7245C12.5989 22.9746 12.938 23.1151 13.2917 23.1151H19.9583C20.312 23.1151 20.6511 22.9746 20.9011 22.7245C21.1512 22.4745 21.2917 22.1354 21.2917 21.7817V12.4484H11.9583ZM13.9583 12.4484V11.1151C13.9583 10.7614 14.0988 10.4223 14.3489 10.1723C14.5989 9.92221 14.938 9.78174 15.2917 9.78174H17.9583C18.312 9.78174 18.6511 9.92221 18.9011 10.1723C19.1512 10.4223 19.2917 10.7614 19.2917 11.1151V12.4484M15.2917 15.7817V19.7817M17.9583 15.7817V19.7817" stroke="#C74225" stroke-width="1.5" stroke-linecap="round" stroke-linejoin="round"/>
<rect x="1.125" y="0.948242" width="31" height="31" rx="15.5" stroke="#A8A8A8"/>
</svg>
